#N canvas 358 50 382 430 10;
#X obj 39 46 cnv 30 300 300 empty initCol empty 20 12 0 14 -233017
-66577 0;
#X obj 91 248 cnv 15 200 50 empty empty empty 20 12 0 14 -262144 -66577
0;
#X text 164 227 V, f 2;
#X text 192 204 V;
#X text 308 265 <;
#X text 71 266 >;
#X text 137 319 ^;
#X text 219 330 ^;
#X text 177 300 ^;
#X text 214 224 v;
#X text 140 203 v;
#X obj 132 69 tgl 50 0 awareness initCol empty 17 7 0 10 -204800 -1
-1 0 1;
#X obj 199 69 tgl 50 0 emergence initCol empty 17 7 0 10 -204800 -1
-1 0 1;
#X obj 65 69 tgl 50 0 consciousness initCol empty 20 20 0 10 -204800
-1 -1 0 1;
#X obj 266 69 bng 50 250 50 0 activate initCol empty 17 7 0 10 -204800
-1 -1;
#X text 43 349 by wo3 \; • usage: CC \, BY \; • no warranties \;
• contact: werle.kyle@gmail.com \;;
#X text 85 50 1;
#X text 152 49 2;
#X text 217 50 3;
#X text 287 49 4;
#X text 64 129 click the buttons in order \;;
#X text 229 184 v;
#X text 65 146 wait for the green light \;;
#X text 64 163 click __MOTH-7 \;;
#X obj 156 266 __MOTH-7;
