#N canvas 613 23 738 917 10;
#X obj 22 56 midi_bpm2ms;
#N canvas 363 278 299 207 4x4Seq 0;
#X obj 27 38 inlet;
#X obj 27 123 outlet;
#X obj 27 95 select 0;
#X obj 27 66 mod 8;
#X connect 0 0 3 0;
#X connect 2 0 1 0;
#X connect 3 0 2 0;
#X restore 80 168 pd 4x4Seq;
#X obj 22 106 metro;
#X obj 112 57 tgl 50 0 empty empty empty 17 7 0 10 -262144 -1 -1 1
1;
#X obj 308 154 tgl 50 0 empty empty empty 17 7 0 10 -262144 -1 -1 1
1;
#X obj 393 120 keyup;
#X obj 393 140 select 122;
#X obj 320 574 cnv 30 1 1 empty empty abyss 20 12 0 12 -262144 -191407
0;
#X obj 22 20 r START-BANG;
#X obj 285 139 r START-BANG;
#X obj 22 204 s MAIN;
#X obj 308 64 s NEW-SEED;
#X obj 80 204 bng 15 250 50 0 empty empty empty 17 7 0 10 -262144 -1
-1;
#X obj 308 14 bng 50 250 50 0 empty empty empty 17 7 0 10 -262144 -1
-1;
#N canvas 513 209 693 283 startup 0;
#X obj 45 179 r START-BANG;
#X obj 105 128 s START-BANG;
#X text 120 13 main load bang to send to all sub patches;
#X text 155 179 enable midi;
#X text 182 74 enable DSP;
#X obj 14 148 s INIT-BANG;
#X obj 14 128 del 1000;
#X obj 14 36 t b b;
#X obj 14 13 r activate;
#X obj 14 83 del 500;
#X msg 45 201 \; pd midi-dialog 2 0 0 0 0 0 0 0 0 0 0 0 0 0 0 0 0 0
3 3;
#X obj 502 9 r INIT-BANG;
#X msg 502 31 color 6;
#X obj 502 76 r START-BANG;
#X msg 502 98 color 10;
#X text 500 141 init startup splash screen;
#X obj 502 53 s initCol;
#X obj 502 120 s initCol;
#X text 506 197 [r pd];
#X text 507 213 |;
#X text 507 229 [print];
#X obj 14 103 t b b;
#X msg 104 66 \; pd dsp 1;
#X connect 0 0 10 0;
#X connect 6 0 5 0;
#X connect 7 0 9 0;
#X connect 7 1 22 0;
#X connect 8 0 7 0;
#X connect 9 0 21 0;
#X connect 11 0 12 0;
#X connect 12 0 16 0;
#X connect 13 0 14 0;
#X connect 14 0 17 0;
#X connect 21 0 6 0;
#X connect 21 1 1 0;
#X restore 149 18 pd startup;
#N canvas 810 353 449 300 MAINclock 0;
#X obj 105 133 f;
#X obj 136 133 + 1;
#X obj 136 154 mod 16;
#X obj 124 94 midiClockReceive;
#X obj 105 71 inlet;
#X obj 105 179 outlet;
#X obj 248 178 outlet;
#X connect 0 0 1 0;
#X connect 0 0 5 0;
#X connect 1 0 2 0;
#X connect 2 0 0 1;
#X connect 3 0 0 0;
#X connect 3 1 0 0;
#X connect 3 1 6 0;
#X connect 4 0 0 0;
#X restore 22 128 pd MAINclock;
#X obj 115 149 s ZERO;
#X obj 194 187 r MAIN;
#X obj 422 187 r ZERO;
#N canvas 225 503 333 355 quiet 0;
#X obj 88 10 inlet;
#X obj 209 117 inlet;
#X obj 88 33 select 0;
#X obj 88 134 f;
#X obj 119 134 + 1;
#X obj 88 220 select 0 2 4 6;
#X obj 119 155 mod 8;
#X obj 88 195 spigot;
#X obj 140 178 inlet;
#X obj 88 245 outlet;
#X obj 111 271 outlet;
#X obj 135 295 outlet;
#X obj 159 319 outlet;
#X obj 88 58 f;
#X obj 119 58 + 1;
#X obj 88 103 sel 0;
#X obj 119 79 mod 4;
#X connect 0 0 2 0;
#X connect 1 0 3 0;
#X connect 1 0 13 0;
#X connect 2 0 13 0;
#X connect 3 0 4 0;
#X connect 3 0 7 0;
#X connect 4 0 6 0;
#X connect 5 0 9 0;
#X connect 5 1 10 0;
#X connect 5 2 11 0;
#X connect 5 3 12 0;
#X connect 6 0 3 1;
#X connect 7 0 5 0;
#X connect 8 0 7 1;
#X connect 13 0 14 0;
#X connect 13 0 15 0;
#X connect 14 0 16 0;
#X connect 15 0 3 0;
#X connect 16 0 13 1;
#X restore 194 209 pd quiet rhythm of the mother sea;
#X obj 118 789 pdFeeder;
#X obj 574 154 scaleArray;
#X obj 561 300 r START-BANG;
#X obj 218 789 neuralCore;
#X obj 145 253 markovChain;
#X obj 348 727 master;
#X obj 577 434 modGrainSample v;
#X obj 561 322 neuron 4;
#X obj 577 454 *~ 0.8;
#X obj 404 260 markovChain;
#X obj 100 555 filterTides;
#X msg 22 41 133;
#X obj 521 587 filterTides;
#X obj 116 593 overgrowth;
#X obj 98 628 dawnChorus 22 28;
#X obj 500 625 dawnChorus 28 22;
#X obj 382 22 cnv 30 1 1 empty empty primordialEmpire 20 12 0 32 -262144
-1 0;
#X obj 451 59 cnv 30 1 1 empty empty MOTH-7 20 12 0 32 -262144 -1 0
;
#X obj 447 735 cnv 30 1 1 empty empty thicket_relics_hidden 20 12 0
12 -262144 -1 0;
#X obj 253 555 cnv 30 1 1 empty empty monument_to_infinity 20 12 0
12 -262144 -1 0;
#X obj 488 547 overgrowth;
#X obj 352 658 adc~;
#X obj 22 148 t f f;
#X obj 477 434 fauna c;
#X obj 253 472 modSubSynth;
#X obj 203 434 fauna a;
#X obj 47 434 fauna k;
#X obj 337 434 fauna b;
#X obj 561 344 select 0 1 2 3 4;
#X obj 184 496 overgrowth;
#X connect 0 0 2 1;
#X connect 1 0 12 0;
#X connect 2 0 15 0;
#X connect 3 0 2 0;
#X connect 4 0 19 1;
#X connect 5 0 6 0;
#X connect 6 0 4 0;
#X connect 8 0 31 0;
#X connect 9 0 4 0;
#X connect 13 0 11 0;
#X connect 15 0 42 0;
#X connect 15 1 16 0;
#X connect 17 0 19 0;
#X connect 18 0 19 2;
#X connect 19 0 24 0;
#X connect 19 1 29 0;
#X connect 19 2 24 0;
#X connect 19 3 29 0;
#X connect 22 0 27 0;
#X connect 24 0 30 1;
#X connect 24 0 32 1;
#X connect 24 1 46 0;
#X connect 24 1 47 0;
#X connect 24 2 43 0;
#X connect 24 2 45 0;
#X connect 24 2 44 0;
#X connect 24 3 26 0;
#X connect 24 3 27 0;
#X connect 24 3 34 1;
#X connect 24 3 35 1;
#X connect 24 3 43 0;
#X connect 24 3 45 0;
#X connect 24 3 46 0;
#X connect 24 3 47 0;
#X connect 24 3 44 0;
#X connect 26 0 28 0;
#X connect 27 0 48 0;
#X connect 28 0 40 0;
#X connect 29 2 46 0;
#X connect 29 2 47 0;
#X connect 29 3 27 0;
#X connect 29 3 26 0;
#X connect 29 3 43 0;
#X connect 29 3 45 0;
#X connect 30 0 33 0;
#X connect 31 0 0 0;
#X connect 32 0 35 0;
#X connect 33 0 34 0;
#X connect 34 0 25 0;
#X connect 34 1 25 1;
#X connect 35 0 25 0;
#X connect 35 1 25 1;
#X connect 40 0 32 0;
#X connect 41 0 25 0;
#X connect 41 1 25 1;
#X connect 42 0 10 0;
#X connect 42 1 1 0;
#X connect 43 0 30 0;
#X connect 44 0 49 0;
#X connect 45 0 30 0;
#X connect 46 0 40 0;
#X connect 47 0 40 0;
#X connect 48 0 46 1;
#X connect 48 1 45 1;
#X connect 48 2 47 1;
#X connect 48 3 43 1;
#X connect 48 4 44 1;
#X connect 49 0 30 0;
