#N canvas 157 436 510 409 10;
#X obj 78 148 inlet~;
#X obj 128 329 dac~;
#X obj 78 214 lop~;
#X obj 78 233 lop~;
#X msg 366 309 1000;
#X msg 424 314 20000;
#X obj 78 194 *~;
#X obj 78 255 *~ 0.8;
#X text 12 199 master;
#X obj 341 272 r START-BANG;
#X obj 305 331 s mVol;
#X obj 99 170 r mVol;
#X obj 381 372 s mFilt;
#X obj 123 199 r mFilt;
#X obj 191 219 lop~;
#X obj 191 238 lop~;
#X obj 191 199 *~;
#X obj 212 175 r mVol;
#X obj 236 204 r mFilt;
#X obj 191 151 inlet~;
#X msg 305 311 1;
#X obj 78 275 clip~ -1 1;
#X obj 191 280 clip~ -1 1;
#X obj 191 260 *~ 0.8;
#X connect 0 0 6 0;
#X connect 2 0 3 0;
#X connect 3 0 7 0;
#X connect 4 0 12 0;
#X connect 5 0 12 0;
#X connect 6 0 2 0;
#X connect 7 0 21 0;
#X connect 9 0 20 0;
#X connect 9 0 5 0;
#X connect 11 0 6 1;
#X connect 13 0 2 1;
#X connect 13 0 3 1;
#X connect 14 0 15 0;
#X connect 15 0 23 0;
#X connect 16 0 14 0;
#X connect 17 0 16 1;
#X connect 18 0 14 1;
#X connect 18 0 15 1;
#X connect 19 0 16 0;
#X connect 20 0 10 0;
#X connect 21 0 1 0;
#X connect 22 0 1 1;
#X connect 23 0 22 0;
#X coords 0 409 1 408 500 80 0;
