#N canvas 418 161 544 297 24;
#X obj 100 100 cnv 15 90 50 empty empty empty 20 12 0 14 -203904 -66577
0;
#X obj 116 6 inlet;
#X obj 116 254 outlet;
#X obj 196 45 expr 1000 / \$1 * 60;
#X text 268 70 ms2bpm;
#X floatatom 116 113 5 0 0 0 - - -, f 5;
#X obj 116 188 expr 60 / $f1 * 1000;
#X obj 117 220 / 4;
#X connect 1 0 5 0;
#X connect 5 0 6 0;
#X connect 6 0 7 0;
#X connect 7 0 2 0;
#X coords 0 -1 1 1 90 50 2 100 100;
