#N canvas 55 23 717 917 10;
#X obj 269 550 line~;
#X obj 119 687 *~;
#X obj 41 594 mtof;
#X obj 63 670 lop~;
#X msg 119 583 0;
#X obj 448 489 spigot;
#X obj 295 456 == 0;
#X obj 386 456 == 1;
#X obj 269 489 spigot;
#X obj 358 489 spigot;
#X obj 477 456 == 2;
#X obj 166 615 line;
#X obj 120 758 outlet~;
#X obj 120 737 *~;
#X obj 166 556 random 150;
#X msg 358 523 0.8 \, 0 777;
#X msg 448 523 0.9 \, 0 2000;
#X obj 166 576 + 400;
#X msg 166 596 \$1 100;
#X msg 269 523 0.7 \, 0 300;
#X obj 45 163 t b;
#X obj 280 158 inlet;
#X obj 45 272 t b b b;
#X obj 219 289 t b b b b;
#X obj 429 389 f;
#X obj 460 389 + 1;
#X obj 460 410 mod 3;
#X obj 280 180 markovChain;
#X obj 63 620 osc~;
#X obj 45 445 seqGlide;
#X obj 51 716 hip~ 30;
#X obj 51 738 hip~ 30;
#X obj 39 568 - 12;
#X obj 51 694 hip~ 40;
#X obj 383 739 switch~;
#X obj 302 721 line~;
#X obj 383 719 line;
#X obj 341 656 == 0;
#X obj 302 676 spigot;
#X obj 383 676 spigot;
#X obj 422 656 == 1;
#X obj 326 631 t b f b f;
#X text 397 629 switch audio and computation;
#X msg 302 696 1 \, 0 1333;
#X msg 383 696 0 \, 1 1333;
#X text 461 656 uses a toggle;
#X obj 326 593 inlet;
#X text 313 549 envelope generator;
#X obj 45 21 r MAIN;
#X obj 429 357 r START-BANG;
#X obj 326 613 tgl 15 0 empty empty empty 17 7 0 10 -262144 -1 -1 1
1;
#X obj 419 247 * 8;
#X obj 424 151 r START-BANG;
#X obj 419 225 + 1;
#X obj 419 204 neuron 2;
#X text 459 226 length selection 8-32 beats;
#X obj 45 188 seqGate;
#X obj 45 294 seqFreq;
#X obj 142 76 euclidGen;
#X obj 45 143 spigot;
#X obj 90 93 t f f;
#X obj 142 138 spigot;
#X obj 90 117 == 0;
#X obj 187 113 == 1;
#X obj 90 47 neuron 2;
#X obj 45 61 sel 0;
#X obj 45 41 mod 4;
#X obj 419 267 t f f f;
#X obj 424 171 t b b;
#X obj 62 640 *~ 0.3;
#X connect 0 0 1 1;
#X connect 1 0 33 0;
#X connect 2 0 28 0;
#X connect 3 0 1 0;
#X connect 4 0 28 1;
#X connect 5 0 16 0;
#X connect 6 0 8 1;
#X connect 7 0 9 1;
#X connect 8 0 19 0;
#X connect 9 0 15 0;
#X connect 10 0 5 1;
#X connect 11 0 3 1;
#X connect 13 0 12 0;
#X connect 14 0 17 0;
#X connect 15 0 0 0;
#X connect 16 0 0 0;
#X connect 17 0 18 0;
#X connect 18 0 11 0;
#X connect 19 0 0 0;
#X connect 20 0 56 0;
#X connect 21 0 27 0;
#X connect 22 0 57 0;
#X connect 22 1 14 0;
#X connect 22 2 23 0;
#X connect 23 0 4 0;
#X connect 23 1 8 0;
#X connect 23 2 9 0;
#X connect 23 3 5 0;
#X connect 24 0 25 0;
#X connect 24 0 6 0;
#X connect 24 0 7 0;
#X connect 24 0 10 0;
#X connect 25 0 26 0;
#X connect 26 0 24 1;
#X connect 27 0 24 0;
#X connect 27 0 58 1;
#X connect 27 0 56 1;
#X connect 27 1 29 1;
#X connect 27 1 56 1;
#X connect 27 1 57 1;
#X connect 27 2 24 0;
#X connect 27 2 29 1;
#X connect 27 2 57 1;
#X connect 27 3 29 1;
#X connect 27 3 57 2;
#X connect 27 3 54 0;
#X connect 28 0 69 0;
#X connect 29 0 32 0;
#X connect 30 0 31 0;
#X connect 31 0 13 0;
#X connect 32 0 2 0;
#X connect 33 0 30 0;
#X connect 35 0 13 1;
#X connect 36 0 34 0;
#X connect 37 0 38 1;
#X connect 38 0 43 0;
#X connect 39 0 44 0;
#X connect 40 0 39 1;
#X connect 41 0 38 0;
#X connect 41 1 37 0;
#X connect 41 2 39 0;
#X connect 41 3 40 0;
#X connect 43 0 35 0;
#X connect 43 0 36 0;
#X connect 44 0 36 0;
#X connect 44 0 35 0;
#X connect 46 0 50 0;
#X connect 48 0 66 0;
#X connect 49 0 24 0;
#X connect 50 0 41 0;
#X connect 51 0 67 0;
#X connect 52 0 68 0;
#X connect 53 0 51 0;
#X connect 54 0 53 0;
#X connect 56 0 22 0;
#X connect 57 0 29 0;
#X connect 58 0 61 0;
#X connect 59 0 20 0;
#X connect 60 0 62 0;
#X connect 60 1 63 0;
#X connect 61 0 20 0;
#X connect 62 0 59 1;
#X connect 63 0 61 1;
#X connect 64 0 60 0;
#X connect 65 0 59 0;
#X connect 65 0 58 0;
#X connect 66 0 65 0;
#X connect 67 0 58 2;
#X connect 67 1 56 2;
#X connect 67 2 57 3;
#X connect 68 0 64 0;
#X connect 68 1 54 0;
#X connect 69 0 3 0;
