#N canvas 476 403 451 346 10;
#X obj 48 71 inlet~;
#X obj 88 103 delwrite~ \$0-overgrowth 200;
#X obj 152 214 delread4~ \$0-overgrowth;
#X obj 153 145 osc~ 0.03;
#X obj 69 303 outlet~;
#X obj 153 167 +~ 2;
#X obj 152 236 *~ 0.9;
#X obj 153 189 *~ 1200;
#X obj 318 92 neuron 100;
#X obj 318 114 / 2000;
#X obj 318 47 r START-BANG;
#X obj 318 69 t b;
#X obj 152 258 *~ 0.08;
#X obj 296 20 inlet;
#X connect 0 0 1 0;
#X connect 0 0 4 0;
#X connect 2 0 6 0;
#X connect 3 0 5 0;
#X connect 5 0 7 0;
#X connect 6 0 1 0;
#X connect 6 0 12 0;
#X connect 7 0 2 0;
#X connect 8 0 9 0;
#X connect 9 0 3 0;
#X connect 10 0 11 0;
#X connect 11 0 8 0;
#X connect 12 0 4 0;
#X connect 13 0 11 0;
