#N canvas 495 216 443 192 10;
#N canvas 419 151 881 453 subp 0;
#X floatatom 2 63 1 0 0 0 - ON OFF/ON, f 1;
#X obj 100 33 cnv 15 320 20 empty empty empty 20 12 0 14 -261234 -1
0;
#N canvas 545 200 494 450 my_BIOGRAPHY 0;
#X text 187 113 ***;
#N canvas 500 107 399 149 tip 0;
#X text 5 48 Have you tried sliding one of my eyes?;
#X coords 0 149 1 148 8 8 0;
#X restore 177 147 pd tip;
#X text 20 16 Feeder is a demon lord from another plane of existence.
;
#X text 20 56 Any attempt at comprehending it's plane of existence
would cause instantaneous melting of mind and body;
#X restore 469 5 pd my_BIOGRAPHY;
#N canvas 490 99 369 123 my_MIND 0;
#X text 13 33 I feed off the kingdom of electrons.;
#X restore 469 27 pd my_MIND;
#X obj 196 169 cnv 15 415 170 empty empty empty 20 12 0 14 -191407
-66577 0;
#X obj 326 260 hsl 200 10 1000 4000 0 0 empty empty <_+TALKATIVE___-TALKATIVE_>
5 -6 0 11 -86277 -262144 -1 0 1;
#X floatatom 323 277 5 0 0 0 - - -, f 5;
#X obj 6 239 cnv 15 188 100 empty empty empty 20 12 0 14 -241142 -66577
0;
#N canvas 463 162 433 336 my-face 0;
#X obj 170 120 cnv 15 150 84 empty empty empty 8 8 0 14 -105636 -66577
0;
#X obj 170 206 cnv 15 150 84 empty empty empty 8 8 0 14 -231912 -66577
0;
#X obj 188 230 + 16;
#X obj 128 113 line;
#X obj 188 210 * 0.5;
#X obj 188 250 int;
#X obj 188 130 int;
#X obj 28 17 inlet;
#X obj 112 31 cnv 15 230 43 empty empty output_of_numbers_10_to_109
90 19 0 9 -233017 -66577 0;
#X obj 128 54 + 10;
#X text 17 102 smooth movement >;
#X msg 128 93 \$1 30;
#X obj 244 147 send eyes;
#X obj 244 267 send mouth;
#X obj 128 34 random 100;
#X connect 2 0 5 0;
#X connect 3 0 6 0;
#X connect 4 0 2 0;
#X connect 5 0 13 0;
#X connect 6 0 4 0;
#X connect 6 0 12 0;
#X connect 7 0 14 0;
#X connect 9 0 11 0;
#X connect 11 0 3 0;
#X connect 14 0 9 0;
#X restore 16 298 pd my-face;
#N canvas 306 57 591 600 my-words 0;
#X obj -64 4337 inlet;
#X text 32 -34 Here you can add more expressions. Just put a [sel]
object and a [print] object. Give [sel] a value from 0 to 199 \, (or
a value from 0 to n-1 related to the [random] object) so that [random]
bangs your phrase once every 200 bangs (statistically speaking).;
#X text 32 26 Note: you can start each desired comment with four consecutive
underscores \, "____". No commas allowed.;
#X obj 88 151 print ____(Organic)_machinery;
#X obj 87 179 print ____[blank];
#X obj 87 207 print ____A_line_has_two_sides;
#X obj 87 235 print ____A_very_small_object_-_it's_center;
#X obj 87 263 print ____Abandon_normality;
#X obj 87 291 print ____Accept_advice;
#X obj 87 319 print ____Accretion;
#X obj 87 349 print ____Remove_a_restriction;
#X obj 36 134 sel 0;
#X obj 36 162 sel 1;
#X obj 36 190 sel 2;
#X obj 36 218 sel 3;
#X obj 36 246 sel 4;
#X obj 36 274 sel 5;
#X obj 36 302 sel 6;
#X obj 36 332 sel 7;
#X text 45 68 ATTENTION: if you put lots and lots of comments \, you'll
need to increase the range of random \, for example [random 1000] \,
otherwise \, Feeder will become too chatty.;
#X obj 36 362 sel 8;
#X obj 88 379 print ____Always_first_steps;
#X obj 87 407 print ____Are_there_sections?;
#X obj 87 435 print ____Ask_people_to_work_against_their_better_judgment
;
#X obj 87 463 print ____Ask_your_body;
#X obj 87 491 print ____Assemble_in_a_group_and_treat_that_group;
#X obj 87 519 print ____Balance_consistency_with_inconsistency;
#X obj 87 547 print ____Be_dirty;
#X obj 87 577 print ____Be_extravagant;
#X obj 36 390 sel 9;
#X obj 36 418 sel 10;
#X obj 36 446 sel 11;
#X obj 36 474 sel 12;
#X obj 36 502 sel 13;
#X obj 36 530 sel 14;
#X obj 36 560 sel 15;
#X obj 88 606 print ____Be_less_critical;
#X obj 87 634 print ____Breathe_more_deeply;
#X obj 87 662 print ____Bridges_-_build_-_burn;
#X obj 87 690 print ____Cascades;
#X obj 87 718 print ____Change_instrument_roles;
#X obj 87 746 print ____Change_nothing_and_continue_consistently;
#X obj 87 774 print ____Children's_voices_-_speaking_-_singing;
#X obj 87 804 print ____Cluster_analysis;
#X obj 88 834 print ____Consider_different_fading_systems;
#X obj 87 862 print ____Consult_other_sources_-_promising_-_unpromising
;
#X obj 87 890 print ____Convert_a_melodic_element_into_a_rhythmic_element
;
#X obj 87 918 print ____Courage!;
#X obj 87 946 print ____Cut_a_vital_connection;
#X obj 87 974 print ____Decorate;
#X obj 87 1002 print ____Define_an_area_as_safe_and_use_it_as_an_anchor
;
#X obj 87 1032 print ____Destroy_-_nothing_-_the_most_important_thing
;
#X obj 36 589 sel 16;
#X obj 36 617 sel 17;
#X obj 36 645 sel 18;
#X obj 36 673 sel 19;
#X obj 36 701 sel 20;
#X obj 36 729 sel 21;
#X obj 36 757 sel 22;
#X obj 36 787 sel 23;
#X obj 36 817 sel 24;
#X obj 36 845 sel 25;
#X obj 36 873 sel 26;
#X obj 36 901 sel 27;
#X obj 36 929 sel 28;
#X obj 36 957 sel 29;
#X obj 36 985 sel 30;
#X obj 36 1015 sel 31;
#X obj 87 1059 print ____Discard_an_axiom;
#X obj 87 1087 print ____Disciplined_self-indulgence;
#X obj 87 1115 print ____Disconnect_from_desire;
#X obj 87 1143 print ____Discover_your_patterns_and_abandon_them;
#X obj 87 1171 print ____Distorting_time;
#X obj 87 1199 print ____Do_nothing_for_as_long_as_possible;
#X obj 88 1258 print ____Do_something_sudden_destructive_and_unpredictable
;
#X obj 87 1286 print ____Do_the_last_thing_first;
#X obj 87 1314 print ____Do_the_washing_up;
#X obj 87 1342 print ____Do_the_words_need_changing?;
#X obj 87 1370 print ____Do_we_need_holes?;
#X obj 87 1398 print ____Don't_be_afraid_of_things_because_they_are_easy
;
#X obj 87 1426 print ____Don't_be_frightened_by_cliches;
#X obj 87 1456 print ____Don't_be_frightened_to_display_your_talents
;
#X obj 88 1486 print ____Don't_break_the_silence;
#X obj 87 1514 print ____Don't_stress_one_thing_more_than_another;
#X obj 87 1542 print ____Emphasize_differences;
#X obj 87 1570 print ____Emphasize_repetitions;
#X obj 87 1598 print ____Emphasize_the_flaws;
#X obj 87 1626 print ____Faced_with_a_choice_-_do_both;
#X obj 87 1654 print ____Feed_the_recording_out_of_the_medium;
#X obj 36 1042 sel 32;
#X obj 36 1070 sel 33;
#X obj 36 1098 sel 34;
#X obj 36 1126 sel 35;
#X obj 36 1154 sel 36;
#X obj 36 1182 sel 37;
#X obj 36 1212 sel 38;
#X obj 36 1241 sel 39;
#X obj 36 1269 sel 40;
#X obj 36 1297 sel 41;
#X obj 36 1325 sel 42;
#X obj 36 1353 sel 43;
#X obj 36 1381 sel 44;
#X obj 36 1409 sel 45;
#X obj 36 1439 sel 46;
#X obj 36 1469 sel 47;
#X obj 36 1497 sel 48;
#X obj 36 1525 sel 49;
#X obj 36 1553 sel 50;
#X obj 36 1581 sel 51;
#X obj 36 1609 sel 52;
#X obj 36 1637 sel 53;
#X obj 36 1667 sel 54;
#X obj 87 1684 print ____Fill_every_beat_with_something;
#X obj 87 1715 print ____Find_a_safe_part_and_use_it_as_an_anchor;
#X obj 87 1743 print ____From_nothing_to_more_than_nothing;
#X obj 87 1771 print ____Get_your_neck_massaged;
#X obj 87 1801 print ____Ghost_echoes;
#X obj 88 1830 print ____Give_the_name_away;
#X obj 87 1858 print ____Give_way_to_your_worst_impulse;
#X obj 87 1886 print ____Go_outside._Shut_the_door;
#X obj 87 1914 print ____Go_slowly_all_the_way_around_outside;
#X obj 87 1942 print ____Go_to_an_extreme_then_to_a_comfortable_place
;
#X obj 87 1970 print ____Honor_thy_error_as_hidden_intention;
#X obj 87 1998 print ____How_would_someone_else_do_it?;
#X obj 87 2028 print ____How_would_you_have_done_it?;
#X obj 88 2058 print ____Humanize_something_free_of_error;
#X obj 87 2086 print ____Idiot_glee;
#X obj 87 2114 print ____Imagine_the_music_as_a_set_of_disconnected_events
;
#X obj 87 2142 print ____In_total_darkness_or_a_very_large_room_quietly
;
#X obj 87 2170 print ____Infinite_gradation;
#X obj 87 2198 print ____Intentions-credibility-nobility-humility;
#X obj 87 2226 print ____Into_the_impossible;
#X obj 87 2256 print ____Is_it_finished?;
#X obj 36 1698 sel 55;
#X obj 36 1726 sel 56;
#X obj 36 1754 sel 57;
#X obj 36 1784 sel 58;
#X obj 36 1813 sel 59;
#X obj 36 1841 sel 60;
#X obj 36 1869 sel 61;
#X obj 36 1897 sel 62;
#X obj 36 1925 sel 63;
#X obj 36 1953 sel 64;
#X obj 36 1981 sel 65;
#X obj 36 2011 sel 66;
#X obj 36 2041 sel 67;
#X obj 36 2069 sel 68;
#X obj 36 2097 sel 69;
#X obj 36 2125 sel 70;
#X obj 36 2153 sel 71;
#X obj 36 2181 sel 72;
#X obj 36 2209 sel 73;
#X obj 36 2239 sel 74;
#X obj 87 2285 print ____Is_the_info_correct?;
#X obj 87 2313 print ____Is_the_style_right?;
#X obj 87 2341 print ____Is_the_tuning_appropriate?;
#X obj 87 2371 print ____Is_there_something_missing?;
#X obj 88 2400 print ____It_is_possible;
#X obj 87 2428 print ____It_is_simply_a_matter_of_work;
#X obj 87 2456 print ____Just_carry_on;
#X obj 87 2484 print ____Left_channel_right_channel_center_channel
;
#X obj 87 2512 print ____Listen_in_total_darkness_or_large_room_quietly
;
#X obj 87 2540 print ____Listen_to_the_quiet_voice;
#X obj 87 2568 print ____Look_at_the_order_you_do_things;
#X obj 87 2598 print ____Amplify_imperfections;
#X obj 88 2628 print ____Lost_in_useless_territory;
#X obj 87 2656 print ____Lowest_common_denominator;
#X obj 87 2684 print ____Magnify_the_most_difficult_details;
#X obj 87 2712 print ____Make_a_blank_valuable_by_framing_it_exquisitely
;
#X obj 87 2740 print ____Make_a_sudden_destructive_unpredictable_action
;
#X obj 87 2768 print ____Make_a_list_of_Everything_you_might_do._Do_last
;
#X obj 87 2796 print ____Make_it_more_sensual;
#X obj 87 2826 print ____Mechanize_something_idiosyncratic;
#X obj 36 2268 sel 75;
#X obj 36 2296 sel 76;
#X obj 36 2324 sel 77;
#X obj 36 2354 sel 78;
#X obj 36 2383 sel 79;
#X obj 36 2411 sel 80;
#X obj 36 2439 sel 81;
#X obj 36 2467 sel 82;
#X obj 36 2495 sel 83;
#X obj 36 2523 sel 84;
#X obj 36 2551 sel 85;
#X obj 36 2581 sel 86;
#X obj 36 2611 sel 87;
#X obj 36 2639 sel 88;
#X obj 36 2667 sel 89;
#X obj 36 2695 sel 90;
#X obj 36 2723 sel 91;
#X obj 36 2751 sel 92;
#X obj 36 2779 sel 93;
#X obj 36 2809 sel 94;
#X obj 87 2855 print ____Mute_and_continue;
#X obj 87 2883 print ____Not_building_a_wall_but_making_a_brick;
#X obj 87 2911 print ____Once_started_something_will_be_found;
#X obj 87 2941 print ____Only_a_part_not_the_whole;
#X obj 88 2970 print ____Only_one_element_of_each_kind;
#X obj 87 2998 print ____Overtly_resist_change;
#X obj 87 3026 print ____Put_in_earplugs;
#X obj 87 3054 print ____Question_the_heroic_approach;
#X obj 87 3082 print ____Remember_those_quiet_evenings;
#X obj 87 3110 print ____Convert_to_specifics;
#X obj 87 3138 print ____Convert_to_ambiguity;
#X obj 87 3168 print ____Repetition_is_a_form_of_change;
#X obj 88 3198 print ____Retrace_your_steps;
#X obj 87 3226 print ____A_warm_feeling;
#X obj 87 3254 print ____Reverse;
#X obj 87 3282 print ____Short_circuit;
#X obj 87 3310 print ____Simple_subtraction;
#X obj 87 3338 print ____Simply_a_matter_of_work;
#X obj 87 3366 print ____Slow_preparation_fast_execution;
#X obj 87 3396 print ____Spectrum_analysis;
#X obj 36 2838 sel 95;
#X obj 36 2866 sel 96;
#X obj 36 2894 sel 97;
#X obj 36 2924 sel 98;
#X obj 36 2953 sel 99;
#X obj 36 2981 sel 100;
#X obj 36 3009 sel 101;
#X obj 36 3037 sel 102;
#X obj 36 3065 sel 103;
#X obj 36 3093 sel 104;
#X obj 36 3121 sel 105;
#X obj 36 3151 sel 106;
#X obj 36 3181 sel 107;
#X obj 36 3209 sel 108;
#X obj 36 3237 sel 109;
#X obj 36 3265 sel 110;
#X obj 36 3293 sel 111;
#X obj 36 3321 sel 112;
#X obj 36 3349 sel 113;
#X obj 36 3379 sel 114;
#X obj 87 3425 print ____State_the_problem_as_clearly_as_possible;
#X obj 87 3453 print ____Take_a_break;
#X obj 87 3481 print ____Remove_elements_in_order_of_importance;
#X obj 87 3511 print ____Tape_your_mouth;
#X obj 88 3540 print ____Inconsistent;
#X obj 87 3568 print ____The_most_important_is_easily_forgotten;
#X obj 87 3596 print ____The_tape_is_now_the_music;
#X obj 87 3624 print ____Think_inside_and_outside;
#X obj 87 3652 print ____Think_of_the_radio;
#X obj 87 3680 print ____Tidy_up;
#X obj 87 3708 print ____Enter_the_void;
#X obj 87 3738 print ____Move_towards_the_unimportant;
#X obj 88 3768 print ____Trust_in_yourself_now;
#X obj 87 3796 print ____Turn_it_upside_down;
#X obj 87 3824 print ____Twist_the_spine;
#X obj 87 3852 print ____Use_an_old_idea;
#X obj 87 3880 print ____Use_an_unaccetable_color;
#X obj 87 3908 print ____Use_fewer_notes;
#X obj 87 3936 print ____Use_filters;
#X obj 87 3966 print ____Use_something_nearby_as_a_model;
#X obj 36 3408 sel 115;
#X obj 36 3436 sel 116;
#X obj 36 3464 sel 117;
#X obj 36 3494 sel 118;
#X obj 36 3523 sel 119;
#X obj 36 3551 sel 120;
#X obj 36 3579 sel 121;
#X obj 36 3607 sel 123;
#X obj 36 3635 sel 124;
#X obj 36 3663 sel 125;
#X obj 36 3691 sel 126;
#X obj 36 3721 sel 127;
#X obj 36 3751 sel 128;
#X obj 36 3779 sel 129;
#X obj 36 3807 sel 130;
#X obj 36 3835 sel 131;
#X obj 36 3863 sel 132;
#X obj 36 3891 sel 133;
#X obj 36 3919 sel 134;
#X obj 36 3949 sel 135;
#X obj 87 3995 print ____Use_unqualified_people;
#X obj 87 4023 print ____Voice_your_suspicions;
#X obj 87 4051 print ____Water;
#X obj 87 4081 print ____Imagine_music_as_a_moving_chain;
#X obj 88 4110 print ____What_are_you_really_thinking_about?;
#X obj 87 4138 print ____What_context_would_look_right?;
#X obj 87 4166 print ____What_is_the_reality_of_the_situation?;
#X obj 87 4194 print ____What_is_the_simplest_solution?;
#X obj 87 4222 print ____What_mistakes_did_you_make_last_time?;
#X obj 87 4250 print ____What_to_increase_reduce_maintain;
#X obj 87 4278 print ____What_would_your_closest_friends_do?;
#X obj 87 4308 print ____What_wouldn't_you_do?;
#X obj 88 4338 print ____When_is_it_for?;
#X obj 87 4366 print ____Where_is_the_edge?;
#X obj 87 4394 print ____Which_parts_can_be_grouped?;
#X obj 87 4422 print ____Work_at_a_different_speed;
#X obj 87 4450 print ____Would_anyone_want_it?;
#X obj 87 4478 print ____You_are_an_engineer;
#X obj 87 4506 print ____You_can_only_make_one_dot_at_a_time;
#X obj 87 4536 print ____Don't_be_ashamed;
#X obj 36 3978 sel 136;
#X obj 36 4006 sel 137;
#X obj 36 4034 sel 138;
#X obj 36 4064 sel 139;
#X obj 36 4093 sel 140;
#X obj 36 4121 sel 141;
#X obj 36 4149 sel 142;
#X obj 36 4177 sel 143;
#X obj 36 4205 sel 144;
#X obj 36 4233 sel 145;
#X obj 36 4261 sel 146;
#X obj 36 4291 sel 147;
#X obj 36 4321 sel 148;
#X obj 36 4349 sel 149;
#X obj 36 4377 sel 150;
#X obj 36 4405 sel 151;
#X obj 36 4433 sel 152;
#X obj 36 4461 sel 153;
#X obj 36 4489 sel 154;
#X obj 36 4519 sel 155;
#X obj 87 1229 print ____Do_something_boring;
#X connect 0 0 11 0;
#X connect 0 0 12 0;
#X connect 0 0 13 0;
#X connect 0 0 14 0;
#X connect 0 0 15 0;
#X connect 0 0 16 0;
#X connect 0 0 17 0;
#X connect 0 0 18 0;
#X connect 0 0 20 0;
#X connect 0 0 29 0;
#X connect 0 0 30 0;
#X connect 0 0 31 0;
#X connect 0 0 32 0;
#X connect 0 0 33 0;
#X connect 0 0 34 0;
#X connect 0 0 35 0;
#X connect 0 0 52 0;
#X connect 0 0 53 0;
#X connect 0 0 54 0;
#X connect 0 0 55 0;
#X connect 0 0 56 0;
#X connect 0 0 57 0;
#X connect 0 0 58 0;
#X connect 0 0 59 0;
#X connect 0 0 60 0;
#X connect 0 0 61 0;
#X connect 0 0 62 0;
#X connect 0 0 63 0;
#X connect 0 0 64 0;
#X connect 0 0 65 0;
#X connect 0 0 66 0;
#X connect 0 0 67 0;
#X connect 0 0 89 0;
#X connect 0 0 90 0;
#X connect 0 0 91 0;
#X connect 0 0 92 0;
#X connect 0 0 93 0;
#X connect 0 0 94 0;
#X connect 0 0 95 0;
#X connect 0 0 96 0;
#X connect 0 0 97 0;
#X connect 0 0 98 0;
#X connect 0 0 99 0;
#X connect 0 0 100 0;
#X connect 0 0 101 0;
#X connect 0 0 102 0;
#X connect 0 0 103 0;
#X connect 0 0 104 0;
#X connect 0 0 105 0;
#X connect 0 0 106 0;
#X connect 0 0 107 0;
#X connect 0 0 108 0;
#X connect 0 0 109 0;
#X connect 0 0 110 0;
#X connect 0 0 111 0;
#X connect 0 0 133 0;
#X connect 0 0 134 0;
#X connect 0 0 135 0;
#X connect 0 0 136 0;
#X connect 0 0 137 0;
#X connect 0 0 138 0;
#X connect 0 0 139 0;
#X connect 0 0 140 0;
#X connect 0 0 141 0;
#X connect 0 0 142 0;
#X connect 0 0 143 0;
#X connect 0 0 144 0;
#X connect 0 0 145 0;
#X connect 0 0 146 0;
#X connect 0 0 147 0;
#X connect 0 0 148 0;
#X connect 0 0 149 0;
#X connect 0 0 150 0;
#X connect 0 0 151 0;
#X connect 0 0 152 0;
#X connect 0 0 173 0;
#X connect 0 0 174 0;
#X connect 0 0 175 0;
#X connect 0 0 176 0;
#X connect 0 0 177 0;
#X connect 0 0 178 0;
#X connect 0 0 179 0;
#X connect 0 0 180 0;
#X connect 0 0 181 0;
#X connect 0 0 182 0;
#X connect 0 0 183 0;
#X connect 0 0 184 0;
#X connect 0 0 185 0;
#X connect 0 0 186 0;
#X connect 0 0 187 0;
#X connect 0 0 188 0;
#X connect 0 0 189 0;
#X connect 0 0 190 0;
#X connect 0 0 191 0;
#X connect 0 0 192 0;
#X connect 0 0 213 0;
#X connect 0 0 214 0;
#X connect 0 0 215 0;
#X connect 0 0 216 0;
#X connect 0 0 217 0;
#X connect 0 0 218 0;
#X connect 0 0 219 0;
#X connect 0 0 220 0;
#X connect 0 0 221 0;
#X connect 0 0 222 0;
#X connect 0 0 223 0;
#X connect 0 0 224 0;
#X connect 0 0 225 0;
#X connect 0 0 226 0;
#X connect 0 0 227 0;
#X connect 0 0 228 0;
#X connect 0 0 229 0;
#X connect 0 0 230 0;
#X connect 0 0 231 0;
#X connect 0 0 232 0;
#X connect 0 0 253 0;
#X connect 0 0 254 0;
#X connect 0 0 255 0;
#X connect 0 0 256 0;
#X connect 0 0 257 0;
#X connect 0 0 258 0;
#X connect 0 0 259 0;
#X connect 0 0 260 0;
#X connect 0 0 261 0;
#X connect 0 0 262 0;
#X connect 0 0 263 0;
#X connect 0 0 264 0;
#X connect 0 0 265 0;
#X connect 0 0 266 0;
#X connect 0 0 267 0;
#X connect 0 0 268 0;
#X connect 0 0 269 0;
#X connect 0 0 270 0;
#X connect 0 0 271 0;
#X connect 0 0 272 0;
#X connect 0 0 293 0;
#X connect 0 0 294 0;
#X connect 0 0 295 0;
#X connect 0 0 296 0;
#X connect 0 0 297 0;
#X connect 0 0 298 0;
#X connect 0 0 299 0;
#X connect 0 0 300 0;
#X connect 0 0 301 0;
#X connect 0 0 302 0;
#X connect 0 0 303 0;
#X connect 0 0 304 0;
#X connect 0 0 305 0;
#X connect 0 0 306 0;
#X connect 0 0 307 0;
#X connect 0 0 308 0;
#X connect 0 0 309 0;
#X connect 0 0 310 0;
#X connect 0 0 311 0;
#X connect 0 0 312 0;
#X connect 11 0 3 0;
#X connect 12 0 4 0;
#X connect 13 0 5 0;
#X connect 14 0 6 0;
#X connect 15 0 7 0;
#X connect 16 0 8 0;
#X connect 17 0 9 0;
#X connect 18 0 10 0;
#X connect 20 0 21 0;
#X connect 29 0 22 0;
#X connect 30 0 23 0;
#X connect 31 0 24 0;
#X connect 32 0 25 0;
#X connect 33 0 26 0;
#X connect 34 0 27 0;
#X connect 35 0 28 0;
#X connect 52 0 36 0;
#X connect 53 0 37 0;
#X connect 54 0 38 0;
#X connect 55 0 39 0;
#X connect 56 0 40 0;
#X connect 57 0 41 0;
#X connect 58 0 42 0;
#X connect 59 0 43 0;
#X connect 60 0 44 0;
#X connect 61 0 45 0;
#X connect 62 0 46 0;
#X connect 63 0 47 0;
#X connect 64 0 48 0;
#X connect 65 0 49 0;
#X connect 66 0 50 0;
#X connect 67 0 51 0;
#X connect 89 0 68 0;
#X connect 90 0 69 0;
#X connect 91 0 70 0;
#X connect 92 0 71 0;
#X connect 93 0 72 0;
#X connect 94 0 73 0;
#X connect 95 0 313 0;
#X connect 96 0 74 0;
#X connect 97 0 75 0;
#X connect 98 0 76 0;
#X connect 99 0 77 0;
#X connect 100 0 78 0;
#X connect 101 0 79 0;
#X connect 102 0 80 0;
#X connect 103 0 81 0;
#X connect 104 0 82 0;
#X connect 105 0 83 0;
#X connect 106 0 84 0;
#X connect 107 0 85 0;
#X connect 108 0 86 0;
#X connect 109 0 87 0;
#X connect 110 0 88 0;
#X connect 111 0 112 0;
#X connect 133 0 113 0;
#X connect 134 0 114 0;
#X connect 135 0 115 0;
#X connect 136 0 116 0;
#X connect 137 0 117 0;
#X connect 138 0 118 0;
#X connect 139 0 119 0;
#X connect 140 0 120 0;
#X connect 141 0 121 0;
#X connect 142 0 122 0;
#X connect 143 0 123 0;
#X connect 144 0 124 0;
#X connect 145 0 125 0;
#X connect 146 0 126 0;
#X connect 147 0 127 0;
#X connect 148 0 128 0;
#X connect 149 0 129 0;
#X connect 150 0 130 0;
#X connect 151 0 131 0;
#X connect 152 0 132 0;
#X connect 173 0 153 0;
#X connect 174 0 154 0;
#X connect 175 0 155 0;
#X connect 176 0 156 0;
#X connect 177 0 157 0;
#X connect 178 0 158 0;
#X connect 179 0 159 0;
#X connect 180 0 160 0;
#X connect 181 0 161 0;
#X connect 182 0 162 0;
#X connect 183 0 163 0;
#X connect 184 0 164 0;
#X connect 185 0 165 0;
#X connect 186 0 166 0;
#X connect 187 0 167 0;
#X connect 188 0 168 0;
#X connect 189 0 169 0;
#X connect 190 0 170 0;
#X connect 191 0 171 0;
#X connect 192 0 172 0;
#X connect 213 0 193 0;
#X connect 214 0 194 0;
#X connect 215 0 195 0;
#X connect 216 0 196 0;
#X connect 217 0 197 0;
#X connect 218 0 198 0;
#X connect 219 0 199 0;
#X connect 220 0 200 0;
#X connect 221 0 201 0;
#X connect 222 0 202 0;
#X connect 223 0 203 0;
#X connect 224 0 204 0;
#X connect 225 0 205 0;
#X connect 226 0 206 0;
#X connect 227 0 207 0;
#X connect 228 0 208 0;
#X connect 229 0 209 0;
#X connect 230 0 210 0;
#X connect 231 0 211 0;
#X connect 232 0 212 0;
#X connect 253 0 233 0;
#X connect 254 0 234 0;
#X connect 255 0 235 0;
#X connect 256 0 236 0;
#X connect 257 0 237 0;
#X connect 258 0 238 0;
#X connect 259 0 239 0;
#X connect 260 0 240 0;
#X connect 261 0 241 0;
#X connect 262 0 242 0;
#X connect 263 0 243 0;
#X connect 264 0 244 0;
#X connect 265 0 245 0;
#X connect 266 0 246 0;
#X connect 267 0 247 0;
#X connect 268 0 248 0;
#X connect 269 0 249 0;
#X connect 270 0 250 0;
#X connect 271 0 251 0;
#X connect 272 0 252 0;
#X connect 293 0 273 0;
#X connect 294 0 274 0;
#X connect 295 0 275 0;
#X connect 296 0 276 0;
#X connect 297 0 277 0;
#X connect 298 0 278 0;
#X connect 299 0 279 0;
#X connect 300 0 280 0;
#X connect 301 0 281 0;
#X connect 302 0 282 0;
#X connect 303 0 283 0;
#X connect 304 0 284 0;
#X connect 305 0 285 0;
#X connect 306 0 286 0;
#X connect 307 0 287 0;
#X connect 308 0 288 0;
#X connect 309 0 289 0;
#X connect 310 0 290 0;
#X connect 311 0 291 0;
#X connect 312 0 292 0;
#X restore 205 298 pd my-words;
#X obj 6 162 cnv 15 188 75 empty empty empty 20 12 0 14 -257968 -66577
0;
#X obj 16 197 metro 4000;
#N canvas 509 189 519 196 my-OFF/ON-behaviour 0;
#X obj 90 -5 sel 0;
#X obj -13 -22 r OFF/ON;
#X obj -13 83 outlet;
#X obj 137 12 print ____I_have_returned_to_this_plane;
#X obj 137 40 print ____I_have_sublimated_into_the_void;
#X connect 0 0 4 0;
#X connect 0 1 3 0;
#X connect 1 0 0 0;
#X connect 1 0 2 0;
#X restore 16 169 pd my-OFF/ON-behaviour;
#X obj 5 125 cnv 15 188 35 empty empty empty 20 12 0 14 -228856 -66577
0;
#N canvas 362 252 466 272 my-load-behaviour 0;
#X obj 0 -6 loadbang;
#X msg 139 123 1;
#X obj 64 11 trigger b b b;
#X obj 139 143 s ON;
#X obj 139 43 print aaaaaaaaaaaaaaaaaaaa;
#X obj 139 83 print ____I_am_here;
#X connect 0 0 2 0;
#X connect 1 0 3 0;
#X connect 2 0 1 0;
#X connect 2 1 5 0;
#X connect 2 2 4 0;
#X restore 16 133 pd my-load-behaviour;
#N canvas 327 203 602 254 silent 0;
#X obj 6 1 inlet;
#X obj 6 157 outlet;
#X obj 51 1 tgl 15 0 empty empty Want_me_silent?_Click_this_button!
19 11 0 10 -135559 -261559 -1 0 1;
#X obj 6 89 spigot 1;
#X obj 51 68 ==;
#X obj 131 29 sel 1;
#X obj 131 129 t b b;
#X obj 131 109 sel 0;
#X obj 131 49 t b b b;
#X obj 198 66 print ____aaaaaaaaaaaaaaaaaaa;
#X obj 198 106 print ____aaaaaaaaaaaaaaaaaaa;
#X obj 198 146 print ____aaaaaaaaaaaaaaaaaaa;
#X obj 198 86 print ____Severing_connection;
#X obj 198 166 print ____Telepathic_communication_sublimated;
#X connect 0 0 3 0;
#X connect 2 0 4 0;
#X connect 2 0 5 0;
#X connect 2 0 7 0;
#X connect 3 0 1 0;
#X connect 4 0 3 1;
#X connect 5 0 8 0;
#X connect 6 0 13 0;
#X connect 6 1 11 0;
#X connect 7 0 6 0;
#X connect 8 0 10 0;
#X connect 8 1 12 0;
#X connect 8 2 9 0;
#X coords 0 -1 1 1 230 17 2 50 0;
#X restore 205 214 pd silent;
#X obj 464 177 hsl 128 20 4000 64 1 0 empty empty <normal···crazy>
15 16 0 10 -86277 -262144 -258113 0 1;
#X obj 14 16 cnv 15 50 50 empty empty empty 20 12 0 14 -1 -66577 0
;
#X obj 19 41 hsl 15 10 0 127 0 0 hidesend eyes empty -2 -8 0 10 -258113
-257985 -1 827 1;
#X obj 37 28 hsl 7 10 0 127 0 0 hidesend eyes empty -2 -8 0 10 -258113
-257985 -1 354 1;
#X obj 45 41 hsl 15 10 0 127 0 0 hidesend eyes empty -2 -8 0 10 -258113
-257985 -1 827 1;
#X text 107 33 My portal is in the bottom left;
#N canvas 489 96 369 127 my_EYES 0;
#X text 13 52 I see all at all times.;
#X restore 469 49 pd my_EYES;
#X text 206 178 Emptiness or Chaos;
#X text 113 381 changes and additions by wo3;
#X text 348 348 based on pdana \, by LandonPD • idea born: October
7th 2014 \; • usage: CC \, BY \; • no warranties whatsoever \;
• contact: naturalpanorama@yahoo.com.;
#X text 309 297 Change my voice here;
#X obj 205 260 random 8000;
#X obj 104 246 r perceive;
#X msg 104 266 seed \$1;
#X connect 5 0 6 0;
#X connect 5 0 27 1;
#X connect 11 0 8 0;
#X connect 11 0 15 0;
#X connect 12 0 11 0;
#X connect 15 0 27 0;
#X connect 16 0 11 1;
#X connect 27 0 9 0;
#X connect 28 0 29 0;
#X connect 29 0 27 0;
#X coords 0 -1 1 1 80 80 2 0 0;
#X restore 0 0 pd subp;
#X text 12 98 Oblique Strategies by Brian Eno and Peter Schmidt;
#X coords 0 -1 1 1 80 80 1 0 0;
