#N canvas 91 121 593 493 10;
#X obj 59 202 inlet;
#X obj 275 205 inlet;
#X obj 59 410 outlet;
#X obj 275 260 until;
#X obj 275 288 f;
#X obj 306 288 + 1;
#X obj 350 288 sel 0;
#X obj 59 255 f;
#X obj 90 255 + 1;
#N canvas 0 50 450 250 (subpatch) 0;
#X array \$0-glide 8 float 2;
#X coords 0 2 8 -1 100 50 1 0 0;
#X restore 120 130 graph;
#X obj 275 331 t b b;
#X obj 275 232 t b b;
#X obj 59 305 tabread \$0-glide;
#X obj 275 404 tabwrite \$0-glide;
#X text 319 231 progressively randomize glide;
#X obj 59 229 t b f;
#X text 108 204 seqFreq input;
#X obj 59 327 t b f;
#X obj 59 347 f;
#X obj 59 367 pack f f;
#X obj 306 309 mod 8;
#X obj 369 371 random 8;
#X obj 90 276 mod 8;
#X obj 127 350 * 50;
#X obj 59 388 line;
#X obj 321 205 r NEW-SEED;
#X obj 402 204 r START-BANG;
#X obj 335 260 neuron 4;
#X obj 275 368 neuron 2;
#X connect 0 0 15 0;
#X connect 1 0 11 0;
#X connect 3 0 4 0;
#X connect 4 0 5 0;
#X connect 4 0 10 0;
#X connect 5 0 20 0;
#X connect 6 0 3 1;
#X connect 7 0 8 0;
#X connect 7 0 12 0;
#X connect 8 0 22 0;
#X connect 10 0 28 0;
#X connect 10 1 21 0;
#X connect 11 0 3 0;
#X connect 11 1 27 0;
#X connect 12 0 17 0;
#X connect 15 0 7 0;
#X connect 15 1 18 1;
#X connect 17 0 18 0;
#X connect 17 1 23 0;
#X connect 18 0 19 0;
#X connect 19 0 24 0;
#X connect 20 0 4 1;
#X connect 20 0 6 0;
#X connect 21 0 13 1;
#X connect 22 0 7 1;
#X connect 23 0 19 1;
#X connect 24 0 2 0;
#X connect 25 0 11 0;
#X connect 26 0 11 0;
#X connect 27 0 20 1;
#X connect 28 0 13 0;
#X coords 0 -1 1 1 140 80 1 100 100;
