#N canvas 346 80 738 917 10;
#X obj 22 96 midi_bpm2ms;
#N canvas 363 278 299 207 4x4Seq 0;
#X obj 27 38 inlet;
#X obj 27 123 outlet;
#X obj 27 95 select 0;
#X obj 27 66 mod 4;
#X connect 0 0 3 0;
#X connect 2 0 1 0;
#X connect 3 0 2 0;
#X restore 80 208 pd 4x4Seq;
#X obj 22 146 metro;
#X obj 112 97 tgl 50 0 empty empty empty 17 7 0 10 -262144 -1 -1 0
1;
#X obj 308 154 tgl 50 0 empty empty empty 17 7 0 10 -262144 -1 -1 1
1;
#X obj 393 119 keyup;
#X obj 393 139 select 122;
#X obj 351 625 cnv 30 1 1 empty empty abyss 20 12 0 12 -262144 -191407
0;
#X obj 22 21 r START-BANG;
#X obj 285 139 r START-BANG;
#X obj 22 244 s MAIN;
#X obj 259 96 s NEW-SEED;
#X obj 80 244 bng 15 200 50 0 empty empty empty 17 7 0 10 -228856 -262144
-262144;
#X obj 259 46 bng 50 250 50 0 empty empty empty 17 7 0 10 -204800 -262144
-1;
#N canvas 406 242 545 321 startup 0;
#X obj 45 179 r START-BANG;
#X msg 187 72 \; pd dsp \$1;
#X obj 187 53 tgl 15 0 empty empty empty 17 7 0 10 -262144 -1 -1 1
1;
#X obj 14 126 s START-BANG;
#X text 120 13 main load bang to send to all sub patches;
#X text 155 179 enable midi;
#X text 265 80 enable DSP;
#X obj 125 147 s INIT-BANG;
#X obj 125 127 del 1000;
#X obj 14 36 t b b;
#X obj 14 13 r activate;
#X obj 14 83 del 500;
#X msg 45 201 \; pd midi-dialog 2 0 0 0 0 0 0 0 0 0 0 0 0 0 0 0 0 0
3 3;
#X connect 0 0 12 0;
#X connect 2 0 1 0;
#X connect 8 0 7 0;
#X connect 9 0 11 0;
#X connect 9 1 2 0;
#X connect 10 0 9 0;
#X connect 11 0 3 0;
#X connect 11 0 8 0;
#X restore 138 21 pd startup;
#N canvas 616 344 449 300 MAINclock 0;
#X obj 105 133 f;
#X obj 136 133 + 1;
#X obj 124 94 midiClockReceive;
#X obj 105 71 inlet;
#X obj 105 179 outlet;
#X obj 248 178 outlet;
#X obj 136 154 mod 16;
#X connect 0 0 1 0;
#X connect 0 0 4 0;
#X connect 1 0 6 0;
#X connect 2 0 0 0;
#X connect 2 1 0 0;
#X connect 2 1 5 0;
#X connect 3 0 0 0;
#X connect 6 0 0 1;
#X restore 22 168 pd MAINclock;
#X obj 115 189 s ZERO;
#X obj 194 187 r MAIN;
#X obj 422 187 r ZERO;
#N canvas 532 269 450 300 quiet 0;
#X obj 88 33 inlet;
#X obj 209 60 inlet;
#X obj 88 56 select 0;
#X obj 88 77 f;
#X obj 119 77 + 1;
#X obj 88 163 select 0 2 4 6;
#X obj 119 98 mod 8;
#X obj 88 138 spigot;
#X obj 140 121 inlet;
#X obj 88 188 outlet;
#X obj 111 214 outlet;
#X obj 135 238 outlet;
#X obj 159 262 outlet;
#X connect 0 0 2 0;
#X connect 1 0 3 0;
#X connect 2 0 3 0;
#X connect 3 0 4 0;
#X connect 3 0 7 0;
#X connect 4 0 6 0;
#X connect 5 0 9 0;
#X connect 5 1 10 0;
#X connect 5 2 11 0;
#X connect 5 3 12 0;
#X connect 6 0 3 1;
#X connect 7 0 5 0;
#X connect 8 0 7 1;
#X restore 194 209 pd quiet rhythm of the mother sea;
#X obj 118 789 pdFeeder;
#X obj 574 154 scaleArray;
#X obj 561 300 r START-BANG;
#X obj 218 789 neuralCore;
#X obj 145 253 markovChain;
#X obj 348 727 master;
#X obj 561 322 neuron 4;
#X obj 404 260 markovChain;
#X obj 561 344 select 0 1 2 3;
#X obj 100 555 filterTides;
#X obj 521 617 filterTides;
#X obj 116 593 overgrowth;
#X obj 98 628 dawnChorus 22 28;
#X obj 500 655 dawnChorus 28 22;
#X obj 382 22 cnv 30 1 1 empty empty primordialEmpire 20 12 0 32 -262144
-1 0;
#X obj 451 59 cnv 30 1 1 empty empty MOTH-7 20 12 0 32 -262144 -1 0
;
#X obj 447 735 cnv 30 1 1 empty empty thicket_relics_hidden 20 12 0
12 -262144 -1 0;
#X obj 284 606 cnv 30 1 1 empty empty monument_to_infinity 20 12 0
12 -262144 -1 0;
#X obj 22 188 t f f;
#X obj 22 61 neuron 100;
#X obj 42 40 r NEW-SEED;
#X obj 22 81 + 60;
#X obj 47 434 fauna k;
#X obj 488 577 overgrowth;
#X obj 477 434 fauna c;
#X obj 337 434 fauna b;
#X obj 203 434 fauna a;
#X obj 266 252 s meteor;
#X obj 326 494 r meteor;
#X obj 326 514 t b b b b;
#X obj 361 186 cnv 15 1 1 empty empty shift 0 12 0 12 -262144 -66577
0;
#X obj 113 76 cnv 15 1 1 empty empty begin 0 12 0 12 -262144 -66577
0;
#X obj 312 76 cnv 15 1 1 empty empty alter 0 12 0 12 -262144 -66577
0;
#X obj 597 434 greatWave;
#X obj 597 454 overgrowth;
#X connect 0 0 2 1;
#X connect 1 0 12 0;
#X connect 2 0 15 0;
#X connect 3 0 2 0;
#X connect 4 0 19 1;
#X connect 5 0 6 0;
#X connect 6 0 4 0;
#X connect 8 0 39 0;
#X connect 9 0 4 0;
#X connect 13 0 11 0;
#X connect 15 0 38 0;
#X connect 15 1 16 0;
#X connect 17 0 19 0;
#X connect 18 0 19 2;
#X connect 19 0 24 0;
#X connect 19 1 27 0;
#X connect 19 2 24 0;
#X connect 19 3 27 0;
#X connect 22 0 26 0;
#X connect 24 0 29 1;
#X connect 24 0 30 1;
#X connect 24 1 42 0;
#X connect 24 1 45 0;
#X connect 24 2 44 0;
#X connect 24 2 46 0;
#X connect 24 2 53 0;
#X connect 24 3 26 0;
#X connect 24 3 42 0;
#X connect 24 3 44 0;
#X connect 24 3 45 0;
#X connect 24 3 46 0;
#X connect 24 3 47 0;
#X connect 24 3 53 0;
#X connect 26 0 28 0;
#X connect 27 2 42 0;
#X connect 27 2 45 0;
#X connect 27 3 26 0;
#X connect 27 3 44 0;
#X connect 27 3 46 0;
#X connect 27 3 54 1;
#X connect 28 0 42 1;
#X connect 28 1 46 1;
#X connect 28 2 45 1;
#X connect 28 3 44 1;
#X connect 29 0 31 0;
#X connect 30 0 33 0;
#X connect 31 0 32 0;
#X connect 32 0 25 0;
#X connect 32 1 25 1;
#X connect 33 0 25 0;
#X connect 33 1 25 1;
#X connect 38 0 10 0;
#X connect 38 1 1 0;
#X connect 39 0 41 0;
#X connect 40 0 39 0;
#X connect 41 0 0 0;
#X connect 42 0 43 0;
#X connect 43 0 30 0;
#X connect 44 0 29 0;
#X connect 45 0 43 0;
#X connect 46 0 29 0;
#X connect 48 0 49 0;
#X connect 49 0 31 1;
#X connect 49 1 32 1;
#X connect 49 2 33 1;
#X connect 49 3 43 1;
#X connect 53 0 54 0;
#X connect 54 0 43 0;
