#N canvas 575 400 584 453 10;
#X obj 49 48 inlet~;
#X obj 203 221 cos~;
#X obj 203 241 *~ 2;
#X obj 203 261 +~ 2;
#X obj 203 301 *~ 0.8;
#X obj 393 226 +~ 0.5;
#X obj 393 246 wrap~;
#X obj 393 266 cos~;
#X obj 393 286 *~ 2;
#X obj 393 306 +~ 2;
#X obj 393 346 *~ 0.8;
#X obj 26 369 outlet~;
#X obj 103 369 outlet~;
#X obj 393 326 delread4~ \$0-phase2;
#X obj 33 296 +~;
#X obj 108 311 +~;
#X obj 203 183 osc~;
#X obj 203 281 delread4~ \$0-phase1;
#X obj 268 104 neuron 30;
#X obj 351 102 neuron 70;
#X obj 351 124 / 10;
#X obj 351 168 t f f f f;
#X obj 435 102 neuron 100;
#X obj 435 124 / 100;
#X obj 435 146 - 0.5;
#X obj 320 25 inlet;
#X obj 320 47 markovChain;
#X obj 435 30 r START-BANG;
#X obj 435 52 t b b b;
#X obj 268 128 / 1000;
#X obj 435 168 * 1.5;
#X obj 351 146 + 3;
#X obj 104 68 delwrite~ \$0-phase1 \$1;
#X obj 88 87 delwrite~ \$0-phase2 \$2;
#X connect 0 0 14 0;
#X connect 0 0 15 0;
#X connect 0 0 32 0;
#X connect 0 0 33 0;
#X connect 1 0 2 0;
#X connect 2 0 3 0;
#X connect 3 0 17 0;
#X connect 4 0 14 1;
#X connect 4 0 32 0;
#X connect 5 0 6 0;
#X connect 6 0 7 0;
#X connect 7 0 8 0;
#X connect 8 0 9 0;
#X connect 9 0 13 0;
#X connect 10 0 15 1;
#X connect 10 0 33 0;
#X connect 13 0 10 0;
#X connect 14 0 11 0;
#X connect 15 0 12 0;
#X connect 16 0 1 0;
#X connect 16 0 5 0;
#X connect 17 0 4 0;
#X connect 18 0 29 0;
#X connect 19 0 20 0;
#X connect 20 0 31 0;
#X connect 21 0 2 1;
#X connect 21 1 3 1;
#X connect 21 2 8 1;
#X connect 21 3 9 1;
#X connect 22 0 23 0;
#X connect 23 0 24 0;
#X connect 24 0 30 0;
#X connect 25 0 26 0;
#X connect 26 0 18 0;
#X connect 26 1 19 0;
#X connect 26 2 22 0;
#X connect 26 3 28 0;
#X connect 27 0 28 0;
#X connect 28 0 18 0;
#X connect 28 1 19 0;
#X connect 28 2 22 0;
#X connect 29 0 16 0;
#X connect 30 0 4 1;
#X connect 30 0 10 1;
#X connect 31 0 21 0;
