#N canvas 75 127 387 327 10;
#X obj 42 81 inlet;
#X obj 84 23 inlet;
#X text 71 3 bang for new random;
#X text 180 111 hits per bar;
#X text 192 180 rotation;
#X text 171 228 length of bar;
#X obj 141 229 \$1;
#X text 158 262 set argument to length \, etc;
#X obj 42 249 select 1;
#X obj 42 281 outlet;
#X obj 42 184 % \$3;
#X obj 42 119 + \$2;
#X obj 42 151 * \$1;
#X obj 42 217 < \$1;
#X text 41 62 send float to calculate;
#X obj 229 23 inlet;
#X text 227 5 lengthIn;
#X obj 229 47 t b b b f f f;
#X obj 183 95 + 1;
#X obj 84 112 neuron \$1;
#X obj 104 181 neuron \$1;
#X obj 132 23 r NEW-SEED;
#X obj 84 46 t b b;
#X connect 0 0 11 0;
#X connect 1 0 22 0;
#X connect 6 0 10 1;
#X connect 8 0 9 0;
#X connect 10 0 13 0;
#X connect 11 0 12 0;
#X connect 12 0 10 0;
#X connect 13 0 8 0;
#X connect 15 0 17 0;
#X connect 17 0 19 0;
#X connect 17 1 20 0;
#X connect 17 2 6 0;
#X connect 17 3 18 0;
#X connect 17 4 20 1;
#X connect 17 5 6 1;
#X connect 18 0 19 1;
#X connect 19 0 12 1;
#X connect 19 0 13 1;
#X connect 20 0 11 1;
#X connect 21 0 22 0;
#X connect 22 0 19 0;
#X connect 22 1 20 0;
