#N canvas 83 24 860 887 10;
#X obj 31 822 outlet~;
#X obj 185 27 inlet;
#X obj 198 644 osc~;
#X text 238 640 ampModulation;
#X obj 198 623 / 100;
#X obj 198 604 + 1;
#X obj 198 717 *~ 1;
#X obj 31 312 t b;
#X obj 213 559 r START-BANG;
#X obj 31 428 t b;
#X obj 533 271 t b;
#X obj 533 340 select 0 1 2 3 4 5 6;
#X obj 533 245 r START-BANG;
#N canvas 0 50 450 250 (subpatch) 0;
#X array \$0-sample 5752 float 2;
#X coords 0 1 5752 -1 200 140 1 0 0;
#X restore 637 186 graph;
#X obj 533 556 t s b;
#X obj 586 556 symbol \$0-sample;
#X obj 533 580 pack s s;
#X msg 533 602 read -resize \$1 \$2;
#X obj 533 624 soundfiler;
#X obj 52 485 r \$0-sampleSize;
#X obj 533 648 s \$0-sampleSize;
#X obj 63 554 / 44.1;
#X msg 31 601 0 \, \$1 \$2;
#X obj 31 579 pack f f;
#X obj 31 509 f;
#X obj 533 367 symbol samples/\$1a.wav;
#X obj 31 645 tabread4~ \$0-sample;
#X obj 31 733 *~;
#X obj 552 394 symbol samples/\$1b.wav;
#X obj 572 421 symbol samples/\$1c.wav;
#X obj 591 448 symbol samples/\$1d.wav;
#X obj 611 475 symbol samples/\$1e.wav;
#X obj 631 502 symbol samples/\$1f.wav;
#X obj 650 529 symbol samples/\$1g.wav;
#X obj 533 292 del 50;
#X obj 31 623 vline~;
#X obj 31 531 t f f;
#X obj 387 840 switch~;
#X obj 306 822 line~;
#X obj 387 820 line;
#X obj 345 757 == 0;
#X obj 306 777 spigot;
#X obj 387 777 spigot;
#X obj 426 757 == 1;
#X obj 330 732 t b f b f;
#X msg 306 797 1 \, 0 1333;
#X msg 387 797 0 \, 1 1333;
#X text 465 757 uses a toggle;
#X obj 330 639 inlet;
#X text 411 730 switch audio;
#X obj 31 795 *~;
#X obj 32 89 r MAIN;
#X obj 330 712 tgl 15 0 empty empty empty 17 7 0 10 -262144 -1 -1 0
1;
#X obj 31 667 *~ 0.3;
#X obj 533 313 neuron 7;
#X obj 198 583 neuron 77;
#X obj 185 49 markovChain;
#X obj 31 338 seqGate;
#X obj 138 258 euclidGen;
#X obj 314 245 * 8;
#X obj 319 179 r START-BANG;
#X obj 31 290 spigot;
#X obj 86 220 t f f;
#X obj 138 300 spigot;
#X obj 86 264 == 0;
#X obj 183 281 == 1;
#X obj 86 130 neuron 2;
#X obj 314 223 + 1;
#X obj 198 670 *~ 0.25;
#X obj 32 208 sel 0;
#X obj 31 456 flourish;
#X obj 198 694 +~ 0.75;
#X obj 330 660 markovChain;
#X msg 330 680 1;
#X msg 365 679 1;
#X msg 445 678 0;
#X obj 314 202 neuron 2;
#X text 354 224 length selection 8-32 beats;
#X msg 406 678 1;
#X obj 31 689 hip~ 20;
#X obj 31 711 hip~ 20;
#X obj 32 189 mod 4;
#X obj 31 762 mixer~;
#X obj 138 155 mod 4;
#X obj 138 175 sel 0;
#X obj 138 195 f;
#X obj 169 195 + 1;
#X obj 169 216 mod 16;
#X obj 314 265 t f f f;
#X connect 1 0 56 0;
#X connect 2 0 68 0;
#X connect 4 0 2 0;
#X connect 5 0 4 0;
#X connect 6 0 27 1;
#X connect 7 0 57 0;
#X connect 8 0 55 0;
#X connect 9 0 70 0;
#X connect 10 0 34 0;
#X connect 11 0 25 0;
#X connect 11 1 28 0;
#X connect 11 2 29 0;
#X connect 11 3 30 0;
#X connect 11 4 31 0;
#X connect 11 5 32 0;
#X connect 11 6 33 0;
#X connect 12 0 10 0;
#X connect 14 0 16 0;
#X connect 14 1 15 0;
#X connect 15 0 16 1;
#X connect 16 0 17 0;
#X connect 17 0 18 0;
#X connect 18 0 20 0;
#X connect 19 0 24 1;
#X connect 21 0 23 1;
#X connect 22 0 35 0;
#X connect 23 0 22 0;
#X connect 24 0 36 0;
#X connect 25 0 14 0;
#X connect 26 0 53 0;
#X connect 27 0 82 0;
#X connect 28 0 14 0;
#X connect 29 0 14 0;
#X connect 30 0 14 0;
#X connect 31 0 14 0;
#X connect 32 0 14 0;
#X connect 33 0 14 0;
#X connect 34 0 54 0;
#X connect 35 0 26 0;
#X connect 36 0 23 0;
#X connect 36 1 21 0;
#X connect 38 0 50 1;
#X connect 39 0 37 0;
#X connect 40 0 41 1;
#X connect 41 0 45 0;
#X connect 42 0 46 0;
#X connect 43 0 42 1;
#X connect 44 0 41 0;
#X connect 44 1 40 0;
#X connect 44 2 42 0;
#X connect 44 3 43 0;
#X connect 45 0 38 0;
#X connect 45 0 39 0;
#X connect 46 0 39 0;
#X connect 46 0 38 0;
#X connect 48 0 72 0;
#X connect 50 0 0 0;
#X connect 51 0 81 0;
#X connect 51 0 83 0;
#X connect 52 0 44 0;
#X connect 53 0 79 0;
#X connect 54 0 11 0;
#X connect 55 0 5 0;
#X connect 56 0 58 1;
#X connect 56 1 55 0;
#X connect 56 1 58 1;
#X connect 56 2 55 0;
#X connect 56 2 66 0;
#X connect 56 2 82 1;
#X connect 56 2 57 1;
#X connect 56 3 10 0;
#X connect 56 3 55 0;
#X connect 56 3 66 0;
#X connect 56 3 76 0;
#X connect 56 3 82 1;
#X connect 56 3 57 1;
#X connect 57 0 9 0;
#X connect 58 0 63 0;
#X connect 59 0 88 0;
#X connect 60 0 66 0;
#X connect 60 0 76 0;
#X connect 61 0 7 0;
#X connect 62 0 64 0;
#X connect 62 1 65 0;
#X connect 63 0 7 0;
#X connect 64 0 61 1;
#X connect 65 0 63 1;
#X connect 66 0 62 0;
#X connect 67 0 59 0;
#X connect 68 0 71 0;
#X connect 69 0 61 0;
#X connect 70 0 24 0;
#X connect 71 0 6 0;
#X connect 72 0 73 0;
#X connect 72 1 74 0;
#X connect 72 2 78 0;
#X connect 72 3 75 0;
#X connect 73 0 52 0;
#X connect 74 0 52 0;
#X connect 75 0 52 0;
#X connect 76 0 67 0;
#X connect 78 0 52 0;
#X connect 79 0 80 0;
#X connect 80 0 27 0;
#X connect 81 0 69 0;
#X connect 82 0 50 0;
#X connect 83 0 84 0;
#X connect 84 0 85 0;
#X connect 85 0 86 0;
#X connect 85 0 58 0;
#X connect 86 0 87 0;
#X connect 87 0 85 1;
#X connect 88 0 58 2;
#X connect 88 1 57 2;
#X connect 88 2 87 1;
#X coords 0 887 1 886 200 100 0;
