#N canvas 199 358 450 300 10;
#X obj 44 52 inlet~;
#X obj 231 112 osc~;
#X text 271 108 ampModulation;
#X obj 231 72 + 1;
#X obj 231 51 neuron 77;
#X obj 231 91 / 400;
#X obj 231 179 +~ 2000;
#X obj 231 135 +~ 1;
#X obj 35 168 outlet~;
#X obj 231 156 *~ 8000;
#X obj 64 93 vcf~ 3;
#X obj 231 26 r START-BANG;
#X obj 339 26 inlet;
#X connect 0 0 10 0;
#X connect 1 0 7 0;
#X connect 3 0 5 0;
#X connect 4 0 3 0;
#X connect 5 0 1 0;
#X connect 6 0 10 1;
#X connect 7 0 9 0;
#X connect 9 0 6 0;
#X connect 10 0 8 0;
#X connect 10 1 8 0;
#X connect 11 0 4 0;
#X connect 12 0 4 0;
