#N canvas 826 281 406 354 10;
#X obj 144 265 spigot;
#X obj 42 70 t b b;
#X obj 144 160 t b;
#X obj 42 130 spigot;
#X obj 42 45 inlet;
#X obj 144 16 r MAIN;
#X obj 42 303 outlet;
#X obj 189 158 == 0;
#X obj 155 84 == 0;
#X obj 87 103 != 0;
#X obj 189 114 sel 1;
#X obj 144 184 spigot;
#X obj 270 190 spigot;
#X obj 270 66 mod 2;
#X obj 270 86 sel 0;
#X obj 144 36 t b f;
#X obj 315 163 != 0;
#X obj 155 62 neuron 30;
#X obj 189 135 neuron 3;
#X connect 0 0 6 0;
#X connect 1 0 3 0;
#X connect 1 1 17 0;
#X connect 2 0 11 0;
#X connect 3 0 6 0;
#X connect 4 0 1 0;
#X connect 5 0 15 0;
#X connect 7 0 11 1;
#X connect 8 0 0 1;
#X connect 8 0 10 0;
#X connect 9 0 3 1;
#X connect 10 0 18 0;
#X connect 11 0 0 0;
#X connect 12 0 0 0;
#X connect 13 0 14 0;
#X connect 14 0 12 0;
#X connect 15 0 2 0;
#X connect 15 1 13 0;
#X connect 16 0 12 1;
#X connect 17 0 8 0;
#X connect 17 0 9 0;
#X connect 18 0 7 0;
#X connect 18 0 16 0;
