#N canvas 205 45 1151 942 10;
#X obj 210 642 line~;
#X obj 210 693 mtof~;
#X obj 210 896 outlet~;
#X text 481 750 FM IN;
#X obj 475 810 *~ 2000;
#X obj 210 717 +~;
#N canvas 0 22 1102 686 wavetables 0;
#X obj 45 234 loadbang;
#X text 103 238 TRIANGLE WAVE;
#X msg 45 370 \; \$1-triangle normalize 1;
#X obj 45 256 f \$0;
#X obj 45 287 t f f;
#X obj 43 410 table \$0-triangle;
#X msg 72 314 \; \$1-triangle sinesum 512 1 0 -0.111111 0 0.04 0 -0.0204082
0 0.0123457 0 -0.00826446;
#X msg 644 399 \; \$1-square sinesum 512 1 0 0.33 0 0.2 0 0.142857
0 0.111111 0 0.090909 0 0.076923 0 0.066666 0 0.058823 0 0.0526315
0 0.047619 0 0.04347 0 0.04 0;
#X connect 0 0 3 0;
#X connect 3 0 4 0;
#X connect 4 0 2 0;
#X connect 4 1 6 0;
#X restore 26 12 pd wavetables;
#X obj 210 598 clip 0 90;
#X obj 449 687 *~ -1;
#X text 499 425 waveShaper;
#N canvas 122 146 749 750 triOSC 0;
#X obj 65 53 inlet~;
#X obj 94 707 outlet~;
#X obj 418 54 inlet~;
#X text 416 33 PWM CV INPUT;
#X obj 12 202 phasor~;
#X obj 266 486 lop~ 10;
#X obj 384 486 lop~ 10;
#X obj 503 486 lop~ 10;
#X obj 265 313 expr~ if ($v1 < 0.5 \, (1-$v1*2) \, 0 ) \; if ($v1 <
0.5 \, $v1*2 \, (1-$v1+0.5)*2-1 ) \; if ($v1 > 0.5 \, ($v1*2-1) \,
0 );
#X obj 94 533 *~;
#X obj 12 533 *~;
#X obj 54 533 *~;
#X obj 54 324 *~ 1027;
#X obj 12 227 *~ 2051;
#X obj 54 295 phasor~;
#X obj 12 170 +~ 0.5;
#X obj 54 270 -~ 0.5;
#X obj 94 376 tabosc4~ \$0-triangle;
#X obj 54 407 tabread4~ \$0-triangle;
#X obj 12 434 tabread4~ \$0-triangle;
#X obj 94 682 *~ 1;
#X text 267 73 0 to 1 for waveshape;
#X connect 0 0 15 0;
#X connect 0 0 16 0;
#X connect 0 0 17 0;
#X connect 2 0 8 0;
#X connect 4 0 13 0;
#X connect 5 0 10 1;
#X connect 6 0 11 1;
#X connect 7 0 9 1;
#X connect 8 0 5 0;
#X connect 8 1 6 0;
#X connect 8 2 7 0;
#X connect 9 0 20 0;
#X connect 10 0 20 0;
#X connect 11 0 20 0;
#X connect 12 0 18 0;
#X connect 13 0 19 0;
#X connect 14 0 12 0;
#X connect 15 0 4 0;
#X connect 16 0 14 0;
#X connect 17 0 9 0;
#X connect 18 0 11 0;
#X connect 19 0 10 0;
#X connect 20 0 1 0;
#X restore 210 764 pd triOSC;
#X obj 449 607 *~ 0.5;
#X obj 449 631 +~ 0.5;
#X obj 549 556 * 0.5;
#X obj 549 531 line;
#X obj 549 576 t f f;
#X obj 449 660 clip~ 0 1;
#X obj 449 707 +~ 1;
#X obj 210 808 *~;
#X obj 449 563 osc~;
#X obj 449 470 + 1;
#X obj 449 537 vline~;
#X obj 449 448 * 1333;
#X obj 177 22 inlet;
#X obj 24 84 r MAIN;
#X obj 177 44 markovChain;
#X obj 130 253 euclidGen;
#X obj 306 240 * 8;
#X obj 311 174 r START-BANG;
#X obj 23 285 spigot;
#X obj 78 215 t f f;
#X obj 130 295 spigot;
#X obj 78 259 == 0;
#X obj 175 276 == 1;
#X obj 78 125 neuron 2;
#X obj 306 218 + 1;
#X obj 24 203 sel 0;
#X obj 24 184 mod 4;
#X obj 130 150 mod 4;
#X obj 130 170 sel 0;
#X obj 130 190 f;
#X obj 161 190 + 1;
#X obj 161 211 mod 16;
#X obj 23 333 seqGate;
#X obj 306 260 t f f f f;
#X obj 38 550 - 18.99;
#X obj 23 596 f;
#X msg 23 624 1 1 \, 0 \$1 1;
#X obj 38 572 moses 1;
#X obj 23 648 vline~;
#X obj 23 670 *~;
#X obj 23 692 *~;
#X obj 38 528 * 3999;
#X obj 23 712 *~;
#X obj 38 506 + 0.05;
#X obj 38 465 neuron 100;
#X obj 38 485 / 100;
#X obj 23 423 t b b;
#X obj 210 836 mixer~;
#X obj 549 457 neuron 100;
#X obj 549 477 / 100;
#X obj 449 405 neuron 100;
#X obj 449 425 / 100;
#X obj 449 492 / 700;
#X msg 549 500 \$1 100;
#X msg 449 514 \$1 100;
#X obj 449 281 r START-BANG;
#X obj 449 381 t b b;
#X obj 672 322 seqGate;
#X obj 23 307 t b b;
#X obj 672 407 t b b;
#X obj 687 537 - 18.99;
#X obj 672 583 f;
#X msg 672 611 1 1 \, 0 \$1 1;
#X obj 687 559 moses 1;
#X obj 672 635 vline~;
#X obj 672 657 *~;
#X obj 672 679 *~;
#X obj 672 699 *~;
#X obj 687 493 + 0.05;
#X obj 687 452 neuron 100;
#X obj 687 472 / 100;
#X obj 802 441 seqFreq;
#X obj 210 619 pack 0 20;
#X obj 802 586 mtof;
#X obj 802 606 osc~;
#X obj 802 672 mixer~;
#X obj 802 626 *~;
#X obj 730 234 markovChain;
#X obj 848 368 * 8;
#X obj 853 302 r START-BANG;
#X obj 848 346 + 1;
#X obj 848 388 t f f;
#X obj 848 325 neuron 2;
#X obj 306 197 neuron 2;
#X text 346 219 length selection 8-16 beats;
#X text 888 347 length selection 8-16 beats;
#X obj 317 762 osc~;
#X obj 317 722 + 1;
#X obj 317 701 neuron 77;
#X obj 317 741 / 400;
#X obj 317 785 +~ 1;
#X obj 317 676 r START-BANG;
#X obj 317 806 *~ 3000;
#X obj 210 866 vcf~ 4;
#X obj 475 767 inlet~;
#X obj 475 787 +~;
#X obj 210 451 seqFreq;
#X obj 802 646 *~ 0.2;
#X text 357 758 filterMod;
#X obj 317 829 +~ 100;
#X obj 210 665 +~;
#X obj 210 786 *~ 0.4;
#X obj 687 515 * 3999;
#X connect 0 0 111 0;
#X connect 1 0 5 0;
#X connect 4 0 5 1;
#X connect 5 0 10 0;
#X connect 7 0 83 0;
#X connect 8 0 17 0;
#X connect 10 0 112 0;
#X connect 11 0 12 0;
#X connect 12 0 16 0;
#X connect 13 0 15 0;
#X connect 14 0 13 0;
#X connect 15 0 11 1;
#X connect 15 1 12 1;
#X connect 16 0 8 0;
#X connect 17 0 10 1;
#X connect 18 0 58 0;
#X connect 19 0 11 0;
#X connect 20 0 63 0;
#X connect 21 0 19 0;
#X connect 22 0 20 0;
#X connect 23 0 25 0;
#X connect 23 0 88 0;
#X connect 24 0 37 0;
#X connect 24 0 38 0;
#X connect 25 0 26 1;
#X connect 25 1 26 1;
#X connect 25 2 34 0;
#X connect 25 2 43 1;
#X connect 25 2 55 0;
#X connect 25 3 34 0;
#X connect 25 3 43 1;
#X connect 25 3 55 0;
#X connect 25 3 58 1;
#X connect 25 3 94 0;
#X connect 25 3 107 1;
#X connect 26 0 31 0;
#X connect 27 0 44 0;
#X connect 28 0 34 0;
#X connect 28 0 94 0;
#X connect 29 0 69 0;
#X connect 30 0 32 0;
#X connect 30 1 33 0;
#X connect 31 0 69 0;
#X connect 32 0 29 1;
#X connect 33 0 31 1;
#X connect 34 0 30 0;
#X connect 35 0 27 0;
#X connect 36 0 29 0;
#X connect 37 0 36 0;
#X connect 38 0 39 0;
#X connect 39 0 40 0;
#X connect 40 0 41 0;
#X connect 40 0 26 0;
#X connect 41 0 42 0;
#X connect 42 0 40 1;
#X connect 43 0 57 0;
#X connect 44 0 26 2;
#X connect 44 1 43 2;
#X connect 44 2 42 1;
#X connect 44 3 107 2;
#X connect 45 0 48 0;
#X connect 46 0 47 0;
#X connect 47 0 49 0;
#X connect 48 1 46 1;
#X connect 49 0 50 0;
#X connect 49 0 50 1;
#X connect 50 0 51 0;
#X connect 50 0 51 1;
#X connect 51 0 53 0;
#X connect 51 0 53 1;
#X connect 52 0 45 0;
#X connect 53 0 18 1;
#X connect 54 0 52 0;
#X connect 55 0 56 0;
#X connect 56 0 54 0;
#X connect 57 0 46 0;
#X connect 57 1 107 0;
#X connect 58 0 104 0;
#X connect 59 0 60 0;
#X connect 60 0 64 0;
#X connect 61 0 62 0;
#X connect 62 0 22 0;
#X connect 63 0 65 0;
#X connect 64 0 14 0;
#X connect 65 0 21 0;
#X connect 66 0 67 0;
#X connect 66 0 55 0;
#X connect 66 0 58 1;
#X connect 66 0 80 0;
#X connect 66 0 86 1;
#X connect 67 0 61 0;
#X connect 67 1 59 0;
#X connect 68 0 70 0;
#X connect 69 0 43 0;
#X connect 69 1 68 0;
#X connect 70 0 72 0;
#X connect 70 1 82 0;
#X connect 71 0 74 0;
#X connect 72 0 73 0;
#X connect 73 0 75 0;
#X connect 74 1 72 1;
#X connect 75 0 76 0;
#X connect 75 0 76 1;
#X connect 76 0 77 0;
#X connect 76 0 77 1;
#X connect 77 0 78 0;
#X connect 77 0 78 1;
#X connect 78 0 87 1;
#X connect 79 0 113 0;
#X connect 80 0 81 0;
#X connect 81 0 79 0;
#X connect 82 0 84 0;
#X connect 83 0 0 0;
#X connect 84 0 85 0;
#X connect 85 0 87 0;
#X connect 86 0 106 1;
#X connect 87 0 108 0;
#X connect 88 0 80 0;
#X connect 88 0 68 1;
#X connect 88 1 80 0;
#X connect 88 1 82 1;
#X connect 88 2 82 1;
#X connect 88 2 68 1;
#X connect 88 2 99 0;
#X connect 88 3 86 1;
#X connect 88 3 93 0;
#X connect 88 3 99 0;
#X connect 89 0 92 0;
#X connect 90 0 93 0;
#X connect 91 0 89 0;
#X connect 92 0 68 2;
#X connect 92 1 82 2;
#X connect 93 0 91 0;
#X connect 94 0 35 0;
#X connect 97 0 101 0;
#X connect 98 0 100 0;
#X connect 99 0 98 0;
#X connect 100 0 97 0;
#X connect 101 0 103 0;
#X connect 102 0 99 0;
#X connect 103 0 110 0;
#X connect 104 0 2 0;
#X connect 105 0 106 0;
#X connect 106 0 4 0;
#X connect 107 0 7 0;
#X connect 108 0 86 0;
#X connect 110 0 104 1;
#X connect 111 0 1 0;
#X connect 112 0 18 0;
#X connect 113 0 71 0;
