#N canvas 157 436 462 369 10;
#X obj 78 136 inlet~;
#X obj 128 317 dac~;
#X obj 78 222 *~;
#X obj 78 243 *~ 0.8;
#X text 12 187 master;
#X obj 315 199 r START-BANG;
#X obj 315 239 s mVol;
#X obj 99 198 r mVol;
#X obj 191 227 *~;
#X obj 212 203 r mVol;
#X obj 191 139 inlet~;
#X msg 315 219 1;
#X obj 78 263 clip~ -1 1;
#X obj 191 268 clip~ -1 1;
#X obj 191 248 *~ 0.8;
#X obj 78 170 saturate~;
#X obj 191 170 saturate~;
#X obj 260 119 + 0.8;
#X obj 260 139 t f f;
#X obj 260 79 neuron 100;
#X obj 260 99 / 100;
#X obj 274 54 r START-BANG;
#X obj 260 30 r meteor;
#X connect 0 0 15 0;
#X connect 2 0 3 0;
#X connect 3 0 12 0;
#X connect 5 0 11 0;
#X connect 7 0 2 1;
#X connect 8 0 14 0;
#X connect 9 0 8 1;
#X connect 10 0 16 0;
#X connect 11 0 6 0;
#X connect 12 0 1 0;
#X connect 13 0 1 1;
#X connect 14 0 13 0;
#X connect 15 0 2 0;
#X connect 16 0 8 0;
#X connect 17 0 18 0;
#X connect 18 0 15 1;
#X connect 18 1 16 1;
#X connect 19 0 20 0;
#X connect 20 0 17 0;
#X connect 21 0 19 0;
#X connect 22 0 19 0;
#X coords 0 369 1 368 500 80 0;
