#N canvas 1029 222 544 297 24;
#X obj 100 100 cnv 15 90 50 empty empty empty 20 12 0 14 -228856 -66577
0;
#X obj 111 6 inlet;
#X obj 111 254 outlet;
#X obj 196 45 expr 1000 / \$1 * 60;
#X text 268 70 ms2bpm;
#X floatatom 111 113 5 0 0 0 - - -, f 5;
#X obj 111 188 expr 60 / $f1 * 1000;
#X obj 112 220 / 8;
#X connect 1 0 5 0;
#X connect 5 0 6 0;
#X connect 6 0 7 0;
#X connect 7 0 2 0;
#X coords 0 -1 1 1 90 50 2 100 100;
