#N canvas 795 118 466 383 10;
#X obj 80 50 midirealtimein;
#X obj 241 191 route 252;
#X obj 254 65 route 250;
#X obj 251 139 route 251;
#X obj 80 98 route 248;
#X obj 80 181 f;
#X obj 80 152 spigot;
#X text 334 63 play;
#X text 323 190 stop;
#X text 334 139 continue;
#X obj 80 301 outlet;
#X obj 165 267 outlet;
#X obj 163 80 tgl 15 0 empty empty empty 17 7 0 10 -262144 -1 -1 0
1;
#X msg 241 213 0;
#X msg 251 161 1;
#X msg 254 87 1;
#X obj 119 203 mod 6;
#X obj 119 181 + 1;
#X obj 165 223 spigot;
#X msg 165 243 0;
#X obj 80 277 spigot;
#X msg 109 246 1;
#X obj 80 223 select 0;
#X obj 146 127 t f b f;
#X connect 0 0 1 0;
#X connect 0 0 2 0;
#X connect 0 0 3 0;
#X connect 0 0 4 0;
#X connect 1 0 13 0;
#X connect 2 0 15 0;
#X connect 3 0 14 0;
#X connect 4 0 6 0;
#X connect 5 0 17 0;
#X connect 5 0 22 0;
#X connect 6 0 5 0;
#X connect 12 0 23 0;
#X connect 13 0 12 0;
#X connect 14 0 12 0;
#X connect 15 0 12 0;
#X connect 16 0 5 1;
#X connect 17 0 16 0;
#X connect 18 0 19 0;
#X connect 19 0 11 0;
#X connect 19 0 20 1;
#X connect 19 0 5 1;
#X connect 20 0 10 0;
#X connect 21 0 20 1;
#X connect 22 0 20 0;
#X connect 22 0 21 0;
#X connect 23 0 6 1;
#X connect 23 1 18 0;
#X connect 23 2 18 1;
