#N canvas 996 298 404 305 10;
#X obj 112 89 inlet~;
#X obj 206 97 inlet;
#X obj 112 224 outlet~;
#X obj 112 199 *~;
#X obj 192 121 neuron 100;
#X msg 192 164 \$1 50;
#X obj 192 184 line~;
#X obj 192 72 r START-BANG;
#X obj 192 141 / 100;
#X obj 261 97 r NEW-SEED;
#X connect 0 0 3 0;
#X connect 1 0 4 0;
#X connect 3 0 2 0;
#X connect 4 0 8 0;
#X connect 5 0 6 0;
#X connect 6 0 3 1;
#X connect 7 0 4 0;
#X connect 8 0 5 0;
#X connect 9 0 4 0;
