#N canvas 490 118 1027 754 10;
#X obj 618 118 t b;
#X obj 618 187 select 0 1 2 3 4 5 6;
#X obj 618 92 r START-BANG;
#N canvas 0 50 450 250 (subpatch) 0;
#X array \$0-sample 2.11226e+06 float 2;
#X coords 0 1 2.11226e+06 -1 200 140 1 0 0;
#X restore 722 33 graph;
#X obj 618 403 t s b;
#X obj 671 403 symbol \$0-sample;
#X obj 618 427 pack s s;
#X msg 618 449 read -resize \$1 \$2;
#X obj 618 471 soundfiler;
#X obj 618 495 s \$0-sampleSize;
#X obj 618 214 symbol samples/\$1a.wav;
#X obj 637 241 symbol samples/\$1b.wav;
#X obj 657 268 symbol samples/\$1c.wav;
#X obj 676 295 symbol samples/\$1d.wav;
#X obj 696 322 symbol samples/\$1e.wav;
#X obj 716 349 symbol samples/\$1f.wav;
#X obj 735 376 symbol samples/\$1g.wav;
#X obj 618 139 del 50;
#X obj 19 537 hip~ 5;
#X floatatom 21 55 4 0 100 0 - - -, f 4;
#X obj 20 484 *~;
#X obj 20 386 +~;
#X obj 19 338 samphold~;
#X obj 20 362 *~;
#X obj 185 393 r~ phase;
#X obj 370 218 s~ phase;
#X obj 107 339 r~ phase;
#X obj 55 363 r~ phase;
#X obj 21 98 s chunk-size;
#X floatatom 370 50 0 0 0 0 - - -;
#X text 137 90 chunk size;
#X text 134 104 in seconds;
#X obj 382 87 r chunk-size;
#X obj 382 112 t b f;
#X obj 185 417 -~ 0.5;
#X obj 185 441 *~ 0.5;
#X obj 185 464 cos~;
#X obj 370 192 phasor~;
#X obj 20 271 s~ read-pt;
#X obj 58 386 r~ read-pt;
#X obj 457 211 +~ 0.5;
#X obj 458 237 wrap~;
#X obj 458 262 s~ phase2;
#X obj 19 513 +~;
#X text 404 51 <-- transposition \, halftones/10;
#X obj 21 75 * 0.001;
#X obj 20 223 phasor~;
#X obj 20 410 *~ 44100;
#X obj 19 313 r chunk-size;
#X obj 19 436 +~ 1;
#X floatatom 378 169 5 0 0 0 - - -, f 5;
#X obj 28 177 s precession;
#X obj 495 111 t b f;
#X obj 495 86 r precession;
#X obj 20 154 * 0.01;
#X obj 271 493 *~;
#X obj 271 395 +~;
#X obj 270 347 samphold~;
#X obj 271 371 *~;
#X obj 436 426 -~ 0.5;
#X obj 436 450 *~ 0.5;
#X obj 436 473 cos~;
#X obj 309 395 r~ read-pt;
#X obj 271 419 *~ 44100;
#X obj 270 322 r chunk-size;
#X obj 270 445 +~ 1;
#X obj 358 348 r~ phase2;
#X obj 306 372 r~ phase2;
#X obj 436 402 r~ phase2;
#X text 50 131 <-- precession \, percent;
#X obj 21 11 loadbang;
#X text 171 11 TIME COMPRESSION/EXPANSION BY LOOPED SAMPLING;
#X msg 21 33 25;
#X obj 152 240 * 0.001;
#X text 61 55 <-- chunk size (msec);
#X obj 370 144 expr (pow(2 \, $f1/120)-$f3)/$f2;
#X obj 152 265 t b f;
#X text 195 216 <-- loop length;
#X text 236 231 (msec);
#X obj 20 247 *~;
#X obj 20 199 /;
#X obj 271 469 tabread4~ \$0-sample;
#X obj 20 459 tabread4~ \$0-sample;
#X obj 19 725 outlet~;
#X obj 152 178 f;
#X obj 152 199 / 44.1;
#X floatatom 152 221 5 0 0 0 - - -, f 5;
#X obj 152 156 r \$0-sampleSize;
#X obj 19 559 *~ 0.2;
#X obj 471 311 inlet;
#X obj 180 615 osc~;
#X obj 180 593 / 100;
#X obj 180 574 + 1;
#X obj 180 681 *~ 1;
#X obj 195 529 r START-BANG;
#X obj 263 615 osc~;
#X obj 263 593 / 100;
#X obj 263 574 + 1;
#X obj 263 681 *~ 1;
#X obj 216 717 +~;
#X text 310 573 Dual ampModulation;
#X obj 19 579 *~;
#X obj 471 331 markovChain;
#X obj 20 122 neuron 100;
#X obj 275 59 neuron 100;
#X obj 223 35 r NEW-SEED;
#X obj 275 79 - 300;
#X obj 618 160 neuron 7;
#X obj 486 514 r MAIN;
#X obj 486 574 seqGate;
#X obj 634 619 * 8;
#X obj 639 553 r START-BANG;
#X obj 634 597 + 1;
#X obj 634 639 t f;
#X msg 486 659 0;
#X obj 634 576 neuron 2;
#X obj 263 660 +~ 0.25;
#X obj 263 640 *~ 0.25;
#X obj 180 640 *~ 0.25;
#X obj 180 660 +~ 0.25;
#X obj 180 553 neuron 77;
#X obj 263 553 neuron 88;
#X obj 486 534 mod 4;
#X obj 486 554 sel 0;
#X connect 0 0 17 0;
#X connect 1 0 10 0;
#X connect 1 1 11 0;
#X connect 1 2 12 0;
#X connect 1 3 13 0;
#X connect 1 4 14 0;
#X connect 1 5 15 0;
#X connect 1 6 16 0;
#X connect 2 0 0 0;
#X connect 2 0 103 0;
#X connect 4 0 6 0;
#X connect 4 1 5 0;
#X connect 5 0 6 1;
#X connect 6 0 7 0;
#X connect 7 0 8 0;
#X connect 8 0 9 0;
#X connect 10 0 4 0;
#X connect 11 0 4 0;
#X connect 12 0 4 0;
#X connect 13 0 4 0;
#X connect 14 0 4 0;
#X connect 15 0 4 0;
#X connect 16 0 4 0;
#X connect 17 0 107 0;
#X connect 18 0 88 0;
#X connect 19 0 45 0;
#X connect 20 0 43 0;
#X connect 21 0 47 0;
#X connect 22 0 23 0;
#X connect 23 0 21 0;
#X connect 24 0 34 0;
#X connect 26 0 22 1;
#X connect 27 0 23 1;
#X connect 29 0 75 0;
#X connect 32 0 33 0;
#X connect 33 0 75 0;
#X connect 33 1 75 1;
#X connect 34 0 35 0;
#X connect 35 0 36 0;
#X connect 36 0 20 1;
#X connect 37 0 25 0;
#X connect 37 0 40 0;
#X connect 39 0 21 1;
#X connect 40 0 41 0;
#X connect 41 0 42 0;
#X connect 43 0 18 0;
#X connect 45 0 28 0;
#X connect 46 0 79 0;
#X connect 47 0 49 0;
#X connect 48 0 22 0;
#X connect 49 0 82 0;
#X connect 52 0 75 0;
#X connect 52 1 75 2;
#X connect 53 0 52 0;
#X connect 54 0 51 0;
#X connect 54 0 80 0;
#X connect 55 0 43 1;
#X connect 56 0 63 0;
#X connect 57 0 58 0;
#X connect 58 0 56 0;
#X connect 59 0 60 0;
#X connect 60 0 61 0;
#X connect 61 0 55 1;
#X connect 62 0 56 1;
#X connect 63 0 65 0;
#X connect 64 0 57 0;
#X connect 65 0 81 0;
#X connect 66 0 57 1;
#X connect 67 0 58 1;
#X connect 68 0 59 0;
#X connect 70 0 72 0;
#X connect 72 0 19 0;
#X connect 73 0 76 0;
#X connect 73 0 79 1;
#X connect 75 0 37 0;
#X connect 75 0 50 0;
#X connect 76 0 80 0;
#X connect 76 1 80 1;
#X connect 79 0 38 0;
#X connect 80 0 46 0;
#X connect 81 0 55 0;
#X connect 82 0 20 0;
#X connect 84 0 85 0;
#X connect 85 0 86 0;
#X connect 86 0 73 0;
#X connect 87 0 84 0;
#X connect 88 0 101 0;
#X connect 89 0 102 0;
#X connect 90 0 118 0;
#X connect 91 0 90 0;
#X connect 92 0 91 0;
#X connect 93 0 99 0;
#X connect 94 0 120 0;
#X connect 94 0 121 0;
#X connect 95 0 117 0;
#X connect 96 0 95 0;
#X connect 97 0 96 0;
#X connect 98 0 99 1;
#X connect 99 0 101 1;
#X connect 101 0 83 0;
#X connect 102 0 54 0;
#X connect 102 0 109 1;
#X connect 102 0 120 0;
#X connect 102 1 54 0;
#X connect 102 1 109 1;
#X connect 102 1 121 0;
#X connect 102 2 109 1;
#X connect 102 2 120 0;
#X connect 102 2 121 0;
#X connect 102 3 0 0;
#X connect 102 3 54 0;
#X connect 102 3 104 0;
#X connect 102 3 115 0;
#X connect 102 3 120 0;
#X connect 102 3 121 0;
#X connect 103 0 54 0;
#X connect 104 0 106 0;
#X connect 105 0 104 0;
#X connect 105 0 103 0;
#X connect 105 0 0 0;
#X connect 106 0 75 0;
#X connect 107 0 1 0;
#X connect 108 0 122 0;
#X connect 109 0 114 0;
#X connect 110 0 113 0;
#X connect 111 0 115 0;
#X connect 112 0 110 0;
#X connect 113 0 109 2;
#X connect 114 0 95 1;
#X connect 114 0 90 1;
#X connect 115 0 112 0;
#X connect 116 0 98 0;
#X connect 117 0 116 0;
#X connect 118 0 119 0;
#X connect 119 0 93 0;
#X connect 120 0 92 0;
#X connect 121 0 97 0;
#X connect 122 0 123 0;
#X connect 123 0 109 0;
