#N canvas 363 252 450 300 10;
#X obj 87 185 int;
#X obj 87 104 tabread neuralCore;
#X obj 87 49 inlet;
#X obj 215 83 inlet;
#X obj 87 213 outlet;
#X obj 87 133 pack f f;
#X obj 87 159 expr $f1 * ($f2/100.0);
#X obj 215 116 \$1;
#X obj 264 83 loadbang;
#X obj 87 77 random 3000;
#X connect 0 0 4 0;
#X connect 1 0 5 0;
#X connect 2 0 9 0;
#X connect 3 0 7 0;
#X connect 5 0 6 0;
#X connect 6 0 0 0;
#X connect 7 0 5 1;
#X connect 8 0 7 0;
#X connect 9 0 1 0;
