#N canvas 393 95 652 537 10;
#X obj 21 189 realtime;
#X obj 20 163 t b;
#X obj 21 349 random 100;
#X msg 21 216 seed \$1;
#X obj 21 249 t b a;
#X obj 21 275 until;
#X obj 21 297 f;
#X obj 69 298 + 1;
#X obj 106 298 sel 0;
#N canvas 0 50 597 320 (subpatch) 0;
#X array neuralCore 3000 float 2;
#X coords 0 99 3000 0 400 65 2 0 0;
#X restore 20 35 graph;
#X obj 21 377 tabwrite neuralCore;
#X obj 21 319 t b f;
#X text 423 328 MAINSPRING;
#X text 552 259 SOURCE;
#X text 542 353 SEED;
#X text 456 252 ORIGIN;
#X text 512 294 HEART;
#X text 21 415 How could you know what I don't know if I don't even
know?;
#X text 39 438 Because \, because.;
#X text 21 461 Because because because because because because because
;
#X obj 165 172 realtime;
#X obj 164 147 t b;
#X obj 165 350 random 100;
#X msg 165 198 seed \$1;
#X obj 165 225 t b a;
#X obj 165 251 until;
#X obj 165 273 f;
#X obj 213 274 + 1;
#X obj 250 274 sel 0;
#X obj 165 378 tabwrite neuralCore;
#X obj 165 295 t b f;
#X obj 316 166 realtime;
#X obj 315 142 t b;
#X obj 316 350 random 100;
#X msg 316 193 seed \$1;
#X obj 316 221 t b a;
#X obj 316 247 until;
#X obj 316 269 f;
#X obj 364 270 + 1;
#X obj 401 270 sel 0;
#X obj 316 378 tabwrite neuralCore;
#X obj 316 291 t b f;
#X obj 20 126 r consciousness;
#X obj 164 113 r awareness;
#X obj 315 115 r emergence;
#X obj 410 141 t b b;
#X obj 410 203 tabwrite neuralCore;
#X obj 410 117 r MAIN;
#X obj 410 172 neuron 100;
#X obj 69 320 mod 1000;
#X obj 213 296 mod 1000;
#X obj 364 292 mod 1000;
#X obj 343 318 + 2000;
#X obj 192 322 + 1000;
#X obj 506 172 random 3000;
#X obj 506 127 realtime;
#X msg 506 149 seed \$1;
#X obj 505 100 r START-BANG;
#X obj 224 198 s perceive;
#X connect 0 0 3 0;
#X connect 1 0 0 1;
#X connect 2 0 10 0;
#X connect 3 0 4 0;
#X connect 4 0 5 0;
#X connect 4 1 2 0;
#X connect 5 0 6 0;
#X connect 6 0 7 0;
#X connect 6 0 11 0;
#X connect 7 0 49 0;
#X connect 8 0 5 1;
#X connect 11 0 2 0;
#X connect 11 1 10 1;
#X connect 20 0 23 0;
#X connect 20 0 58 0;
#X connect 21 0 20 1;
#X connect 22 0 29 0;
#X connect 23 0 24 0;
#X connect 24 0 25 0;
#X connect 24 1 22 0;
#X connect 25 0 26 0;
#X connect 26 0 27 0;
#X connect 26 0 30 0;
#X connect 27 0 50 0;
#X connect 28 0 25 1;
#X connect 30 0 22 0;
#X connect 30 1 53 0;
#X connect 31 0 34 0;
#X connect 32 0 31 1;
#X connect 33 0 40 0;
#X connect 34 0 35 0;
#X connect 35 0 36 0;
#X connect 35 1 33 0;
#X connect 36 0 37 0;
#X connect 37 0 38 0;
#X connect 37 0 41 0;
#X connect 38 0 51 0;
#X connect 39 0 36 1;
#X connect 41 0 33 0;
#X connect 41 1 52 0;
#X connect 42 0 1 0;
#X connect 43 0 21 0;
#X connect 44 0 32 0;
#X connect 45 0 48 0;
#X connect 45 1 54 0;
#X connect 47 0 45 0;
#X connect 48 0 46 0;
#X connect 49 0 8 0;
#X connect 49 0 6 1;
#X connect 50 0 28 0;
#X connect 50 0 26 1;
#X connect 51 0 39 0;
#X connect 51 0 37 1;
#X connect 52 0 40 1;
#X connect 53 0 29 1;
#X connect 54 0 46 1;
#X connect 55 0 56 0;
#X connect 56 0 54 0;
#X connect 57 0 55 1;
#X coords 0 -1 1 1 400 80 2 20 20;
