#N canvas 839 451 398 244 10;
#X obj 71 145 expr~ tanh($v1*$v2*2.718);
#X obj 71 60 inlet~;
#X obj 268 39 inlet;
#X obj 71 185 outlet~;
#X msg 268 59 \$1 30;
#X obj 268 79 line~;
#X obj 195 18 loadbang;
#X msg 195 38 0;
#X obj 268 98 +~ 0.8;
#X connect 0 0 3 0;
#X connect 1 0 0 0;
#X connect 2 0 4 0;
#X connect 4 0 5 0;
#X connect 5 0 8 0;
#X connect 6 0 7 0;
#X connect 7 0 4 0;
#X connect 8 0 0 1;
