#N canvas 109 260 803 291 10;
#X msg 367 212 \; scaleArray 0 0 2 3 5 7 8 10;
#X text 384 194 minor C;
#X msg 269 164 \; scaleArray 0 3 4 4 8 9 11 16;
#X text 274 145 ryuku E;
#N canvas 0 50 450 110 (subpatch) 0;
#X array scaleArray 7 float 3;
#A 0 3 4 4 8 9 11 16;
#X coords 0 24 7 0 100 50 1 0 0;
#X restore 100 115 graph;
#X msg 523 165 \; scaleArray 0 0 1 3 5 6 8 10;
#X text 525 147 phrygian F;
#X msg 109 211 \; scaleArray 0 1 4 6 6 9 11 13;
#X text 112 193 min pentatonic F#;
#X obj 255 76 neuron 4;
#X obj 255 98 sel 0 1 2 3;
#X obj 238 36 r START-BANG;
#X obj 264 56 r meteor;
#X connect 9 0 10 0;
#X connect 10 0 7 0;
#X connect 10 1 2 0;
#X connect 10 2 0 0;
#X connect 10 3 5 0;
#X connect 11 0 9 0;
#X connect 12 0 9 0;
#X coords 0 -1 1 1 100 65 2 100 100;
