#N canvas 698 118 575 462 10;
#X obj 60 219 inlet;
#X obj 261 180 inlet;
#X text 262 154 randomize gate sequence;
#X obj 60 383 outlet;
#X obj 261 232 until;
#X obj 261 260 f;
#X obj 292 260 + 1;
#X obj 336 260 sel 0;
#X obj 60 273 f;
#X obj 91 273 + 1;
#X obj 60 247 t b;
#N canvas 0 50 450 250 (subpatch) 0;
#X array \$0-gates 16 float 2;
#X coords 0 2 16 -1 100 50 1 0 0;
#X restore 120 130 graph;
#X obj 261 367 tabwrite \$0-gates;
#X obj 60 314 tabread \$0-gates;
#X obj 60 362 spigot;
#X obj 60 335 t b f;
#X obj 261 205 t b b;
#X obj 261 307 t b b;
#X obj 401 127 array size \$0-gates;
#X obj 401 104 \$1;
#X obj 292 281 mod \$1;
#X obj 91 294 mod \$1;
#X obj 309 180 r NEW-SEED;
#X text 380 20 lengthIn;
#X obj 381 41 inlet;
#X obj 381 64 t b b f f f f;
#X obj 311 222 neuron \$1;
#X obj 261 340 neuron 2;
#X obj 360 341 random \$1;
#X connect 0 0 10 0;
#X connect 1 0 16 0;
#X connect 4 0 5 0;
#X connect 5 0 6 0;
#X connect 5 0 17 0;
#X connect 6 0 20 0;
#X connect 7 0 4 1;
#X connect 8 0 9 0;
#X connect 8 0 13 0;
#X connect 9 0 21 0;
#X connect 10 0 8 0;
#X connect 13 0 15 0;
#X connect 14 0 3 0;
#X connect 15 0 14 0;
#X connect 15 1 14 1;
#X connect 16 0 4 0;
#X connect 16 1 26 0;
#X connect 17 0 27 0;
#X connect 17 1 28 0;
#X connect 19 0 18 0;
#X connect 20 0 5 1;
#X connect 20 0 7 0;
#X connect 21 0 8 1;
#X connect 22 0 16 0;
#X connect 24 0 25 0;
#X connect 25 0 16 0;
#X connect 25 1 19 0;
#X connect 25 2 21 1;
#X connect 25 3 26 1;
#X connect 25 4 28 1;
#X connect 25 5 19 1;
#X connect 26 0 20 1;
#X connect 27 0 12 0;
#X connect 28 0 12 1;
#X coords 0 -1 1 1 140 80 1 100 100;
